<?xml version="1.0"?>

<!DOCTYPE svg PUBLIC '-//W3C//DTD SVG 1.0//EN' 'http://www.w3.org/TR/2001/REC-SVG-20010904/DTD/svg10.dtd'>
<svg fill-opacity="1" xmlns:xlink="http://www.w3.org/1999/xlink" color-rendering="auto" color-interpolation="auto" stroke="black" text-rendering="auto" stroke-linecap="square" width="1180" stroke-miterlimit="10" stroke-opacity="1" shape-rendering="auto" fill="black" stroke-dasharray="none" font-weight="normal" stroke-width="1" height="960" xmlns="http://www.w3.org/2000/svg" font-family="&apos;Dialog&apos;" font-style="normal" stroke-linejoin="miter" font-size="12" stroke-dashoffset="0" image-rendering="auto">
  <!--Generated by Marvin with Batik SVG Generator
MolSource:
<?xml version="1.0" encoding="MacRoman"?><cml xmlns="http://www.chemaxon.com" xmlns:xsi="http://www.w3.org/2001/XMLSchema-instance" xsi:schemaLocation="http://www.chemaxon.com/marvin/help/formats/schema/mrvSchema_6_2_0.xsd" version="ChemAxon file format v6.2, generated by v6.2.0">
<MDocument atomSetFont="0:Arial-PLAIN-18" bondSetLineThickness="0:0.06"><MChemicalStruct><molecule molID="m1"><propertyList><property dictRef="type" title="type"><scalar>systematic</scalar></property></propertyList><atomArray atomID="a1 a2 a3 a4 a5 a6 a7 a8 a9 a10 a11 a12 a13 a14 a15 a16 a17 a18 a19 a20 a21 a22 a23 a24 a25 a26 a27" elementType="C C C C C C C C C C C C C C C C C C O C C C H H H H O" x2="3.3550000190734863 2.021330678025228 2.021330678025228 3.3550000190734863 4.688669360121745 4.688669360121745 6.022368042863786 7.356066725605826 7.356066725605826 6.022368042863786 6.022397384557568 7.356066725605828 8.689736066654087 8.689736066654085 10.15427431436268 11.059495511410045 10.154383963476718 10.630319245587307 9.599896487186765 12.136677286098438 4.688669360121745 8.689736066654087 7.356066725605826 4.688669360121745 6.022368042863786 8.689736066654085 0.6876466658879969" y2="-2.4199661570288917 -3.189983097587932 -4.730016978706013 -5.500033919265054 -4.730016978706013 -3.189983097587932 -5.500050860196799 -4.730084741687585 -3.190084741687585 -2.420050860196799 -0.880033920010463 -0.11001697945142253 -0.8800339200104648 -2.4200678011285452 -2.8959246270600514 -1.6500519689938469 -0.4042119592593445 1.0603991178673837 2.204876701295831 1.3805326115656644 -1.6499830975879322 0.6599660799895353 -1.6500847416875848 -6.270016978706013 -3.960050860196799 -3.9600678011285453 -5.500008508379905"></atomArray><bondArray><bond id="b1" atomRefs2="a1 a2" order="1"></bond><bond id="b2" atomRefs2="a2 a3" order="1"></bond><bond id="b3" atomRefs2="a3 a4" order="1"></bond><bond id="b4" atomRefs2="a4 a5" order="1"></bond><bond id="b5" atomRefs2="a5 a6" order="1"></bond><bond id="b6" atomRefs2="a1 a6" order="1"></bond><bond id="b7" atomRefs2="a7 a8" order="1"></bond><bond id="b8" atomRefs2="a8 a9" order="1"></bond><bond id="b9" atomRefs2="a9 a10" order="1"></bond><bond id="b10" atomRefs2="a5 a7" order="1"></bond><bond id="b11" atomRefs2="a6 a10" order="1"></bond><bond id="b12" atomRefs2="a11 a12" order="1"></bond><bond id="b13" atomRefs2="a12 a13" order="1"></bond><bond id="b14" atomRefs2="a13 a14" order="1"></bond><bond id="b15" atomRefs2="a9 a14" order="1"></bond><bond id="b16" atomRefs2="a10 a11" order="1"></bond><bond id="b17" atomRefs2="a15 a16" order="1"></bond><bond id="b18" atomRefs2="a16 a17" order="1"></bond><bond id="b19" atomRefs2="a13 a17" order="1"></bond><bond id="b20" atomRefs2="a14 a15" order="1"></bond><bond id="b21" atomRefs2="a17 a18" order="1"><bondStereo>W</bondStereo></bond><bond id="b22" atomRefs2="a18 a19" order="2"></bond><bond id="b23" atomRefs2="a18 a20" order="1"></bond><bond id="b24" atomRefs2="a6 a21" order="1"><bondStereo>W</bondStereo></bond><bond id="b25" atomRefs2="a13 a22" order="1"><bondStereo>W</bondStereo></bond><bond id="b26" atomRefs2="a9 a23" order="1"><bondStereo>W</bondStereo></bond><bond id="b27" atomRefs2="a5 a24" order="1"><bondStereo>H</bondStereo></bond><bond id="b28" atomRefs2="a10 a25" order="1"><bondStereo>H</bondStereo></bond><bond id="b29" atomRefs2="a14 a26" order="1"><bondStereo>H</bondStereo></bond><bond id="b30" atomRefs2="a3 a27" order="1"><bondStereo>H</bondStereo></bond></bondArray></molecule></MChemicalStruct></MDocument>
</cml>-->
  <defs id="genericDefs" />
  <g>
    <defs id="defs1">
      <clipPath clipPathUnits="userSpaceOnUse" id="clipPath1">
        <path d="M0 0 L1180 0 L1180 960 L0 960 L0 0 Z" />
      </clipPath>
      <clipPath clipPathUnits="userSpaceOnUse" id="clipPath2">
        <path d="M927.125 38 C940.5869140625 38 951.5 50.759883880615234 951.5 66.5 L951.5 108.30000305175781 C951.5 124.04011535644531 940.5869140625 136.8000030517578 927.125 136.8000030517578 L904.375 136.8000030517578 C890.9130859375 136.8000030517578 880 124.04011535644531 880 108.30000305175781 L880 66.5 C880 50.759883880615234 890.9130859375 38 904.375 38 ZM721.2249755859375 390 C733.8585205078125 390 744.0999755859375 402.7598876953125 744.0999755859375 418.5 L744.0999755859375 460.29998779296875 C744.0999755859375 476.0401306152344 733.8585205078125 488.79998779296875 721.2249755859375 488.79998779296875 L699.875 488.79998779296875 C687.2415161132812 488.79998779296875 677 476.0401306152344 677 460.29998779296875 L677 418.5 C677 402.7598876953125 687.2415161132812 390 699.875 390 ZM600.2249755859375 601 C612.8585205078125 601 623.0999755859375 613.7598876953125 623.0999755859375 629.5 L623.0999755859375 671.2999877929688 C623.0999755859375 687.0401000976562 612.8585205078125 699.7999877929688 600.2249755859375 699.7999877929688 L578.875 699.7999877929688 C566.2415161132812 699.7999877929688 556 687.0401000976562 556 671.2999877929688 L556 629.5 C556 613.7598876953125 566.2415161132812 601 578.875 601 ZM843.2249755859375 601 C855.8585205078125 601 866.0999755859375 613.7598876953125 866.0999755859375 629.5 L866.0999755859375 671.2999877929688 C866.0999755859375 687.0401000976562 855.8585205078125 699.7999877929688 843.2249755859375 699.7999877929688 L821.875 699.7999877929688 C809.2415161132812 699.7999877929688 799 687.0401000976562 799 671.2999877929688 L799 629.5 C799 613.7598876953125 809.2415161132812 601 821.875 601 ZM96.3499984741211 742 C122.4454574584961 742 143.60000610351562 754.7598876953125 143.60000610351562 770.5 L143.60000610351562 812.2999877929688 C143.60000610351562 828.0401000976562 122.4454574584961 840.7999877929688 96.3499984741211 840.7999877929688 L52.25 840.7999877929688 C26.154544830322266 840.7999877929688 5 828.0401000976562 5 812.2999877929688 L5 770.5 C5 754.7598876953125 26.154544830322266 742 52.25 742 ZM478.2250061035156 812 C490.8585205078125 812 501.1000061035156 824.7598876953125 501.1000061035156 840.5 L501.1000061035156 882.2999877929688 C501.1000061035156 898.0401000976562 490.8585205078125 910.7999877929688 478.2250061035156 910.7999877929688 L456.875 910.7999877929688 C444.2414855957031 910.7999877929688 434 898.0401000976562 434 882.2999877929688 L434 840.5 C434 824.7598876953125 444.2414855957031 812 456.875 812 ZM0 0 L0 960 L1180 960 L1180 0 Z" />
      </clipPath>
    </defs>
    <g text-rendering="optimizeLegibility" font-size="84" shape-rendering="geometricPrecision" font-family="&apos;Arial&apos;">
      <text xml:space="preserve" x="880" y="114" clip-path="url(#clipPath1)" stroke="none">O
      </text>
      <text xml:space="preserve" x="677" y="466" clip-path="url(#clipPath1)" stroke="none">H
      </text>
      <text xml:space="preserve" x="434" y="888" clip-path="url(#clipPath1)" stroke="none">H
      </text>
      <text xml:space="preserve" x="556" y="677" clip-path="url(#clipPath1)" stroke="none">H
      </text>
      <text xml:space="preserve" x="799" y="677" clip-path="url(#clipPath1)" stroke="none">H
      </text>
      <text xml:space="preserve" x="5" y="818" clip-path="url(#clipPath1)" stroke="none">HO
      </text>
      <line stroke-linecap="round" clip-path="url(#clipPath2)" fill="none" x1="342.2790021765645" x2="220.3981091763823" y1="507.1935513953287" stroke-linejoin="bevel" y2="577.5635819958958" stroke-width="5.483258247375488" />
      <line stroke-linecap="round" clip-path="url(#clipPath2)" fill="none" x1="220.3981091763823" x2="220.3981091763823" y1="577.5635819958958" stroke-linejoin="bevel" y2="718.3036431970299" stroke-width="5.483258247375488" />
      <line stroke-linecap="round" clip-path="url(#clipPath2)" fill="none" x1="220.3981091763823" x2="342.2790021765645" y1="718.3036431970299" stroke-linejoin="bevel" y2="788.673673797597" stroke-width="5.483258247375488" />
      <line stroke-linecap="round" clip-path="url(#clipPath2)" fill="none" x1="342.2790021765645" x2="464.1598951767467" y1="788.673673797597" stroke-linejoin="bevel" y2="718.3036431970299" stroke-width="5.483258247375488" />
      <line stroke-linecap="round" clip-path="url(#clipPath2)" fill="none" x1="464.1598951767467" x2="464.1598951767467" y1="718.3036431970299" stroke-linejoin="bevel" y2="577.5635819958958" stroke-width="5.483258247375488" />
      <line stroke-linecap="round" clip-path="url(#clipPath2)" fill="none" x1="342.2790021765645" x2="464.1598951767467" y1="507.1935513953287" stroke-linejoin="bevel" y2="577.5635819958958" stroke-width="5.483258247375488" />
      <line stroke-linecap="round" clip-path="url(#clipPath2)" fill="none" x1="586.0434696450637" x2="707.9270441133806" y1="788.6752219893608" stroke-linejoin="bevel" y2="718.3098358959637" stroke-width="5.483258247375488" />
      <line stroke-linecap="round" clip-path="url(#clipPath2)" fill="none" x1="707.9270441133806" x2="707.9270441133806" y1="718.3098358959637" stroke-linejoin="bevel" y2="577.5728710102358" stroke-width="5.483258247375488" />
      <line stroke-linecap="round" clip-path="url(#clipPath2)" fill="none" x1="707.9270441133806" x2="586.0434696450637" y1="577.5728710102358" stroke-linejoin="bevel" y2="507.201292217905" stroke-width="5.483258247375488" />
      <line stroke-linecap="round" clip-path="url(#clipPath2)" fill="none" x1="464.1598951767467" x2="586.0434696450637" y1="718.3036431970299" stroke-linejoin="bevel" y2="788.6752219893608" stroke-width="5.483258247375488" />
      <line stroke-linecap="round" clip-path="url(#clipPath2)" fill="none" x1="464.1598951767467" x2="586.0434696450637" y1="577.5635819958958" stroke-linejoin="bevel" y2="507.201292217905" stroke-width="5.483258247375488" />
      <line stroke-linecap="round" clip-path="url(#clipPath2)" fill="none" x1="586.0461511131984" x2="707.9270441133808" y1="366.4627792085346" stroke-linejoin="bevel" y2="296.0927486079675" stroke-width="5.483258247375488" />
      <line stroke-linecap="round" clip-path="url(#clipPath2)" fill="none" x1="707.9270441133808" x2="829.807937113563" y1="296.0927486079675" stroke-linejoin="bevel" y2="366.46277920853476" stroke-width="5.483258247375488" />
      <line stroke-linecap="round" clip-path="url(#clipPath2)" fill="none" x1="829.807937113563" x2="829.8079371135628" y1="366.46277920853476" stroke-linejoin="bevel" y2="507.20284040966885" stroke-width="5.483258247375488" />
      <line stroke-linecap="round" clip-path="url(#clipPath2)" fill="none" x1="707.9270441133806" x2="829.8079371135628" y1="577.5728710102358" stroke-linejoin="bevel" y2="507.20284040966885" stroke-width="5.483258247375488" />
      <line stroke-linecap="round" clip-path="url(#clipPath2)" fill="none" x1="586.0434696450637" x2="586.0461511131984" y1="507.201292217905" stroke-linejoin="bevel" y2="366.4627792085346" stroke-width="5.483258247375488" />
      <line stroke-linecap="round" clip-path="url(#clipPath2)" fill="none" x1="963.6486305821148" x2="1046.3746590383948" y1="550.6902724887314" stroke-linejoin="bevel" y2="436.83291110538596" stroke-width="5.483258247375488" />
      <line stroke-linecap="round" clip-path="url(#clipPath2)" fill="none" x1="1046.3746590383948" x2="963.6586511558239" y1="436.83291110538596" stroke-linejoin="bevel" y2="322.9785333760097" stroke-width="5.483258247375488" />
      <line stroke-linecap="round" clip-path="url(#clipPath2)" fill="none" x1="829.807937113563" x2="963.6586511558239" y1="366.46277920853476" stroke-linejoin="bevel" y2="322.9785333760097" stroke-width="5.483258247375488" />
      <line stroke-linecap="round" clip-path="url(#clipPath2)" fill="none" x1="829.8079371135628" x2="963.6486305821148" y1="507.20284040966885" stroke-linejoin="bevel" y2="550.6902724887314" stroke-width="5.483258247375488" />
      <path d="M961.0512084960938 322.1312255859375 L966.2660522460938 323.8258361816406 L1020.6534423828125 183.45924377441406 L996.3876342773438 188.6162567138672" clip-path="url(#clipPath2)" stroke="none" />
      <line stroke-linecap="round" clip-path="url(#clipPath2)" fill="none" x1="1002.6331615283373" x2="929.5942543927335" y1="203.04100875284144" stroke-linejoin="bevel" y2="121.91761424963411" stroke-width="5.483258247375488" />
      <line stroke-linecap="round" clip-path="url(#clipPath2)" fill="none" x1="1021.4595604016259" x2="948.4206532660226" y1="186.09078610221476" stroke-linejoin="bevel" y2="104.96739159900753" stroke-width="5.483258247375488" />
      <line stroke-linecap="round" clip-path="url(#clipPath2)" fill="none" x1="1007.1532531598999" x2="1144.815758778568" y1="189.1311841988458" stroke-linejoin="bevel" y2="159.87493987328713" stroke-width="5.483258247375488" />
      <path d="M461.41827392578125 577.5635986328125 L466.9015197753906 577.5635986328125 L474.7151794433594 436.8266296386719 L453.6046142578125 436.8266296386719" clip-path="url(#clipPath2)" stroke="none" />
      <path d="M827.0662841796875 366.4627685546875 L832.549560546875 366.4627685546875 L840.3632202148438 225.72581481933594 L819.252685546875 225.72581481933594" clip-path="url(#clipPath2)" stroke="none" />
      <path d="M705.1854248046875 577.5728759765625 L710.668701171875 577.5728759765625 L718.4822998046875 475.7267761230469 L697.3717651367188 475.7267761230469" clip-path="url(#clipPath2)" stroke="none" />
      <line stroke-linecap="round" clip-path="url(#clipPath2)" fill="none" x1="474.73111849100576" x2="453.5886718624877" y1="820.3036431970299" stroke-linejoin="bevel" y2="820.3036431970299" stroke-width="5.483258247375488" />
      <line stroke-linecap="round" clip-path="url(#clipPath2)" fill="none" x1="473.2801662714016" x2="455.03962408209185" y1="806.3036431970299" stroke-linejoin="bevel" y2="806.3036431970299" stroke-width="5.483258247375488" />
      <line stroke-linecap="round" clip-path="url(#clipPath2)" fill="none" x1="471.8292140517974" x2="456.490576301696" y1="792.3036431970299" stroke-linejoin="bevel" y2="792.3036431970299" stroke-width="5.483258247375488" />
      <line stroke-linecap="round" clip-path="url(#clipPath2)" fill="none" x1="470.37826183219323" x2="457.9415285213002" y1="778.3036431970299" stroke-linejoin="bevel" y2="778.3036431970299" stroke-width="5.483258247375488" />
      <line stroke-linecap="round" clip-path="url(#clipPath2)" fill="none" x1="468.92730961258906" x2="459.3924807409044" y1="764.3036431970299" stroke-linejoin="bevel" y2="764.3036431970299" stroke-width="5.483258247375488" />
      <line stroke-linecap="round" clip-path="url(#clipPath2)" fill="none" x1="467.4763573929848" x2="460.8434329605086" y1="750.3036431970299" stroke-linejoin="bevel" y2="750.3036431970299" stroke-width="5.483258247375488" />
      <line stroke-linecap="round" clip-path="url(#clipPath2)" fill="none" x1="466.02540517338065" x2="462.2943851801128" y1="736.3036431970299" stroke-linejoin="bevel" y2="736.3036431970299" stroke-width="5.483258247375488" />
      <line stroke-linecap="round" clip-path="url(#clipPath2)" fill="none" x1="464.5744529537765" x2="463.74533739971696" y1="722.3036431970299" stroke-linejoin="bevel" y2="722.3036431970299" stroke-width="5.483258247375488" />
      <line stroke-linecap="round" clip-path="url(#clipPath2)" fill="none" x1="596.6146929593228" x2="575.4722463308046" y1="609.201292217905" stroke-linejoin="bevel" y2="609.201292217905" stroke-width="5.483258247375488" />
      <line stroke-linecap="round" clip-path="url(#clipPath2)" fill="none" x1="595.1637407397186" x2="576.9231985504089" y1="595.201292217905" stroke-linejoin="bevel" y2="595.201292217905" stroke-width="5.483258247375488" />
      <line stroke-linecap="round" clip-path="url(#clipPath2)" fill="none" x1="593.7127885201144" x2="578.3741507700131" y1="581.201292217905" stroke-linejoin="bevel" y2="581.201292217905" stroke-width="5.483258247375488" />
      <line stroke-linecap="round" clip-path="url(#clipPath2)" fill="none" x1="592.2618363005103" x2="579.8251029896172" y1="567.201292217905" stroke-linejoin="bevel" y2="567.201292217905" stroke-width="5.483258247375488" />
      <line stroke-linecap="round" clip-path="url(#clipPath2)" fill="none" x1="590.810884080906" x2="581.2760552092215" y1="553.201292217905" stroke-linejoin="bevel" y2="553.201292217905" stroke-width="5.483258247375488" />
      <line stroke-linecap="round" clip-path="url(#clipPath2)" fill="none" x1="589.3599318613019" x2="582.7270074288256" y1="539.201292217905" stroke-linejoin="bevel" y2="539.201292217905" stroke-width="5.483258247375488" />
      <line stroke-linecap="round" clip-path="url(#clipPath2)" fill="none" x1="587.9089796416977" x2="584.1779596484298" y1="525.201292217905" stroke-linejoin="bevel" y2="525.201292217905" stroke-width="5.483258247375488" />
      <path stroke-linecap="round" clip-path="url(#clipPath2)" stroke-linejoin="bevel" d="M586.4580078125 508.45965576171875 L585.62890625 508.45965576171875 C584.1144409179688 508.45965576171875 582.8872680664062 509.68682861328125 582.8872680664062 511.2012939453125 C582.8872680664062 512.7157592773438 584.1144409179688 513.9429321289062 585.62890625 513.9429321289062 L586.4580078125 513.9429321289062 C587.9724731445312 513.9429321289062 589.1996459960938 512.7157592773438 589.1996459960938 511.2012939453125 C589.1996459960938 509.68682861328125 587.9724731445312 508.45965576171875 586.4580078125 508.45965576171875 Z" stroke="none" stroke-width="5.483258247375488" />
      <line stroke-linecap="round" clip-path="url(#clipPath2)" fill="none" x1="840.379160427822" x2="819.2367137993037" y1="609.2028404096689" stroke-linejoin="bevel" y2="609.2028404096689" stroke-width="5.483258247375488" />
      <line stroke-linecap="round" clip-path="url(#clipPath2)" fill="none" x1="838.9282082082177" x2="820.687666018908" y1="595.2028404096689" stroke-linejoin="bevel" y2="595.2028404096689" stroke-width="5.483258247375488" />
      <line stroke-linecap="round" clip-path="url(#clipPath2)" fill="none" x1="837.4772559886135" x2="822.1386182385122" y1="581.2028404096689" stroke-linejoin="bevel" y2="581.2028404096689" stroke-width="5.483258247375488" />
      <line stroke-linecap="round" clip-path="url(#clipPath2)" fill="none" x1="836.0263037690094" x2="823.5895704581163" y1="567.2028404096689" stroke-linejoin="bevel" y2="567.2028404096689" stroke-width="5.483258247375488" />
      <line stroke-linecap="round" clip-path="url(#clipPath2)" fill="none" x1="834.5753515494051" x2="825.0405226777206" y1="553.2028404096689" stroke-linejoin="bevel" y2="553.2028404096689" stroke-width="5.483258247375488" />
      <line stroke-linecap="round" clip-path="url(#clipPath2)" fill="none" x1="833.124399329801" x2="826.4914748973247" y1="539.2028404096689" stroke-linejoin="bevel" y2="539.2028404096689" stroke-width="5.483258247375488" />
      <line stroke-linecap="round" clip-path="url(#clipPath2)" fill="none" x1="831.6734471101968" x2="827.9424271169289" y1="525.2028404096689" stroke-linejoin="bevel" y2="525.2028404096689" stroke-width="5.483258247375488" />
      <line stroke-linecap="round" clip-path="url(#clipPath2)" fill="none" x1="830.2224948905927" x2="829.393379336533" y1="511.20284040966885" stroke-linejoin="bevel" y2="511.20284040966885" stroke-width="5.483258247375488" />
      <line stroke-linecap="round" clip-path="url(#clipPath2)" fill="none" x1="137.34874759993622" x2="126.77764057361074" y1="778.4580636838459" stroke-linejoin="bevel" y2="760.1481006670151" stroke-width="5.483258247375488" />
      <line stroke-linecap="round" clip-path="url(#clipPath2)" fill="none" x1="148.74767958101708" x2="139.62750881320684" y1="770.2015745974202" stroke-linejoin="bevel" y2="754.4047437593701" stroke-width="5.483258247375488" />
      <line stroke-linecap="round" clip-path="url(#clipPath2)" fill="none" x1="160.1466115620979" x2="152.47737705280295" y1="761.9450855109944" stroke-linejoin="bevel" y2="748.6613868517252" stroke-width="5.483258247375488" />
      <line stroke-linecap="round" clip-path="url(#clipPath2)" fill="none" x1="171.54554354317872" x2="165.32724529239903" y1="753.6885964245688" stroke-linejoin="bevel" y2="742.9180299440801" stroke-width="5.483258247375488" />
      <line stroke-linecap="round" clip-path="url(#clipPath2)" fill="none" x1="182.9444755242596" x2="178.17711353199513" y1="745.4321073381429" stroke-linejoin="bevel" y2="737.174673036435" stroke-width="5.483258247375488" />
      <line stroke-linecap="round" clip-path="url(#clipPath2)" fill="none" x1="194.3434075053404" x2="191.02698177159124" y1="737.1756182517173" stroke-linejoin="bevel" y2="731.43131612879" stroke-width="5.483258247375488" />
      <line stroke-linecap="round" clip-path="url(#clipPath2)" fill="none" x1="205.74233948642123" x2="203.87685001118732" y1="728.9191291652916" stroke-linejoin="bevel" y2="725.687959221145" stroke-width="5.483258247375488" />
      <line stroke-linecap="round" clip-path="url(#clipPath2)" fill="none" x1="217.14127146750207" x2="216.7267182507834" y1="720.6626400788658" stroke-linejoin="bevel" y2="719.9446023135" stroke-width="5.483258247375488" />
    </g>
  </g>
</svg>
