<?xml version="1.0" encoding="utf-8"?>
<!-- Generator: Adobe Illustrator 21.0.0, SVG Export Plug-In . SVG Version: 6.00 Build 0)  -->
<svg version="1.1" id="Слой_1" xmlns="http://www.w3.org/2000/svg" xmlns:xlink="http://www.w3.org/1999/xlink" x="0px" y="0px"
	 viewBox="0 0 674.6 328.3" style="enable-background:new 0 0 674.6 328.3;" xml:space="preserve">
<g>
	<rect x="318.5" y="90.9" transform="matrix(0.3094 -0.9509 0.9509 0.3094 148.1399 388.1045)" width="45.6" height="2.4"/>
	<rect x="398.1" y="83.8" transform="matrix(0.951 -0.3092 0.3092 0.951 -11.1014 128.31)" width="2.4" height="30.7"/>
	<polygon points="307.4,14.2 305.5,15.6 339,61.7 321.5,115.4 272.6,143.7 225.1,116.2 225.1,116.2 222.7,114.9 222,115.3 
		172.9,143.7 124.6,115.8 152.8,67 150.7,65.8 123,113.8 95.2,65.8 93.1,67 121.3,115.8 73.1,143.7 34.7,121.5 33.5,123.6 
		71.5,145.5 55,174 57.1,175.2 73.1,147.4 89.1,175.2 91.2,174 74.7,145.5 123,117.6 171.7,145.7 171.7,181.4 174.1,181.4 
		174.1,145.7 221.6,118.3 221.6,118.3 222.7,117.6 271.4,145.7 271.4,200.6 271.4,201.9 222.7,230.1 221.6,229.4 221.6,229.4 
		190,211.1 188.8,213.2 222.1,232.5 222.1,232.5 222.7,232.8 223.3,232.5 223.3,232.5 223.3,232.5 225.1,231.5 225.1,231.5 
		271.5,204.7 271.5,204.7 273.8,203.3 273.8,202.6 273.8,200.6 273.8,145.7 322.5,117.7 353.1,139.9 354.5,138 323.9,115.8 
		341.2,62.7 380.5,62.7 380.5,60.3 340.9,60.3 	"/>
	<rect x="241.3" y="116.8" transform="matrix(0.5004 -0.8658 0.8658 0.5004 0.2642 279.6994)" width="2.4" height="45.6"/>
	<rect x="182" y="151" width="2.4" height="30.4"/>
	<rect x="219.7" y="206.9" transform="matrix(0.8658 -0.5004 0.5004 0.8658 -71.5677 149.2594)" width="45.6" height="2.4"/>
	<polygon points="448.5,136.6 449.7,134.5 416.7,115.4 405.5,81 403.2,81.7 414.3,115.8 383.7,138 385.2,139.9 415.8,117.7 	"/>
	<polygon points="660.2,145.4 660.4,144.6 659.7,144.1 659.7,144.1 614.7,111.4 614.7,111.4 613.5,110.5 613.1,110.2 613.1,110.2 
		612.4,109.7 611.7,110.2 611.7,110.2 611.4,110.4 610.1,111.4 610.1,111.4 581.3,132.4 582.7,134.3 612.4,112.7 656.7,144.9 
		656.7,144.9 657.3,145.3 657.6,145.5 640.7,197.6 640.7,197.6 640.3,198.6 639.2,198.6 584.5,198.6 573.4,164.6 571.2,165.3 
		582.3,199.6 546.3,248.5 514.6,248.5 514.6,250.9 548.1,250.9 567.4,284.3 569.5,283.1 550.9,250.9 560.1,250.9 576.4,279.1 
		578.5,277.9 562.7,250.6 584.4,201 639.2,201 641.2,201 642.1,201 642.4,200.2 642.4,200.2 659.5,147.3 659.6,147.3 660.2,145.4 
		660.2,145.4 	"/>
	<polygon points="390.5,52.9 390.6,52.9 405,75.3 408.9,75.3 408.9,46.6 405.3,46.6 405.3,69 405.2,69 390.9,46.6 386.9,46.6 
		386.9,75.3 390.5,75.3 	"/>
	<path d="M376,149.4c-2.3-1.1-6.1-1.9-6.1-1.9c-2.8-0.6-4.3-1.2-4.3-1.2c-1.5-0.6-2.2-1.4-2.2-1.4c-0.7-0.8-0.7-2.2-0.7-2.2
		c0-1.3,0.8-2.3,0.8-2.3c0.8-1,2.2-1.6,2.2-1.6c1.4-0.6,3.3-0.6,3.3-0.6c2.8,0,4.5,1.4,4.5,1.4c1.7,1.4,2.3,4.5,2.3,4.5h0.1l3.7-0.8
		c-0.4-2.6-1.7-4.4-1.7-4.4c-1.4-1.8-3.6-2.8-3.6-2.8c-2.3-1-5.2-1-5.2-1c-2.8,0-5,1-5,1c-2.2,1-3.5,2.7-3.5,2.7
		c-1.3,1.7-1.3,3.9-1.3,3.9c0,2,0.6,3.4,0.6,3.4c0.7,1.4,2.3,2.6,2.3,2.6c1.7,1.1,4.7,1.9,4.7,1.9c0.6,0.2,2.3,0.6,2.3,0.6
		c2.8,0.6,4.2,1.2,4.2,1.2c1.8,0.6,2.6,1.6,2.6,1.6c0.9,1,0.9,2.8,0.9,2.8c0,1.4-0.9,2.4-0.9,2.4c-1,1.1-2.5,1.7-2.5,1.7
		c-1.6,0.6-3.5,0.6-3.5,0.6c-3.6,0-5.6-1.8-5.6-1.8c-2.1-1.8-2.4-5.3-2.4-5.3l-3.8,0.9c0.7,4.6,3.8,7,3.8,7c3.1,2.4,8.2,2.4,8.2,2.4
		c3,0,5.4-1.1,5.4-1.1c2.4-1.1,3.7-3,3.7-3c1.4-2,1.4-4.4,1.4-4.4c0-2.4-1-4-1-4C378.2,150.5,376,149.4,376,149.4z"/>
	<polygon points="180.3,210.2 180.2,210.2 165.8,187.8 161.9,187.8 161.9,216.5 165.5,216.5 165.5,194.1 165.6,194.1 180,216.5 
		183.9,216.5 183.9,187.8 180.3,187.8 	"/>
	<polygon points="14.2,130.1 17.9,130.1 17.9,117.1 30.8,117.1 30.8,113.7 17.9,113.7 17.9,104.8 32.3,104.8 32.3,101.4 14.2,101.4 
			"/>
	<polygon points="35.3,208.8 39.1,208.8 39.1,195.8 51.9,195.8 51.9,192.4 39.1,192.4 39.1,183.5 53.3,183.5 53.3,180.1 35.3,180.1 
			"/>
	<polygon points="92.9,208.8 96.7,208.8 96.7,195.8 109.5,195.8 109.5,192.4 96.7,192.4 96.7,183.5 110.9,183.5 110.9,180.1 
		92.9,180.1 	"/>
	<polygon points="458.2,136.5 458.3,136.5 472.7,158.9 476.6,158.9 476.6,130.2 473,130.2 473,152.6 472.9,152.6 458.5,130.2 
		454.6,130.2 454.6,158.9 458.2,158.9 	"/>
	<polygon points="476.5,191.5 476.5,162.9 472.6,162.9 472.6,174.6 458.6,174.6 458.6,162.9 454.8,162.9 454.8,191.5 458.6,191.5 
		458.6,178 472.6,178 472.6,191.5 	"/>
	<polygon points="516.6,118.3 516.6,118.3 548.7,136.6 549.9,134.6 521.9,118.5 521.9,79.6 519.5,79.6 519.5,117.1 516.2,115.2 
		515.5,114.9 514.9,115.2 514.9,115.2 514.8,115.3 513.1,116.2 513.1,116.2 511.5,117.2 511.5,79.6 509.1,79.6 509.1,118.6 
		481.5,134.5 482.7,136.6 515.5,117.6 	"/>
	<path d="M508.5,71.4c3.1,1.8,7,1.8,7,1.8c3.9,0,7-1.8,7-1.8c3.1-1.8,4.9-5.2,4.9-5.2c1.8-3.4,1.8-7.8,1.8-7.8
		c0-4.5-1.8-7.8-1.8-7.8c-1.8-3.3-4.9-5.2-4.9-5.2c-3.1-1.8-7-1.8-7-1.8c-3.9,0-7,1.8-7,1.8c-3.1,1.8-4.9,5.2-4.9,5.2
		c-1.8,3.4-1.8,7.8-1.8,7.8c0,4.3,1.8,7.7,1.8,7.7C505.3,69.5,508.5,71.4,508.5,71.4z M506.9,52.2c1.2-2.6,3.4-4,3.4-4
		c2.2-1.4,5.1-1.4,5.1-1.4c2.9,0,5.1,1.4,5.1,1.4c2.2,1.4,3.4,4,3.4,4c1.2,2.6,1.2,6.2,1.2,6.2c0,3.6-1.2,6.2-1.2,6.2
		c-1.2,2.6-3.5,4-3.5,4c-2.2,1.4-5.1,1.4-5.1,1.4c-2.8,0-5-1.4-5-1.4c-2.2-1.4-3.4-4-3.4-4c-1.3-2.6-1.3-6.1-1.3-6.1
		C505.7,54.9,506.9,52.2,506.9,52.2z"/>
	<polygon points="558.4,136.5 558.5,136.5 572.9,158.9 576.8,158.9 576.8,130.2 573.2,130.2 573.2,152.6 573.1,152.6 558.7,130.2 
		554.9,130.2 554.9,158.9 558.4,158.9 	"/>
	<path d="M590.7,286.4c-3.1-1.8-7-1.8-7-1.8c-3.9,0-7,1.8-7,1.8c-3.2,1.8-4.9,5.2-4.9,5.2c-1.8,3.4-1.8,7.8-1.8,7.8
		c0,4.3,1.8,7.7,1.8,7.7c1.8,3.4,4.9,5.2,4.9,5.2c3.2,1.8,7.1,1.8,7.1,1.8c3.9,0,7-1.8,7-1.8c3.1-1.8,4.9-5.2,4.9-5.2
		c1.8-3.4,1.8-7.8,1.8-7.8c0-4.5-1.8-7.8-1.8-7.8C593.8,288.2,590.7,286.4,590.7,286.4z M592.1,305.6c-1.2,2.6-3.5,4-3.5,4
		c-2.2,1.4-5,1.4-5,1.4c-2.8,0-5-1.4-5-1.4c-2.2-1.4-3.5-4-3.5-4c-1.2-2.6-1.2-6.1-1.2-6.1c0-3.6,1.2-6.3,1.2-6.3
		c1.2-2.6,3.5-4,3.5-4c2.2-1.4,5.1-1.4,5.1-1.4c2.9,0,5.1,1.4,5.1,1.4c2.2,1.4,3.5,4,3.5,4c1.2,2.6,1.2,6.2,1.2,6.2
		C593.4,303,592.1,305.6,592.1,305.6z"/>
	<polygon points="504.6,257.2 504.5,257.2 490.1,234.9 486.3,234.9 486.3,263.6 489.8,263.6 489.8,241.2 489.9,241.2 504.3,263.6 
		508.2,263.6 508.2,234.9 504.6,234.9 	"/>
	<polygon points="461.1,246.7 447.1,246.7 447.1,234.9 443.3,234.9 443.3,263.6 447.1,263.6 447.1,250.1 461.1,250.1 461.1,263.6 
		465,263.6 465,234.9 461.1,234.9 	"/>
	<path d="M473.5,266.1c0.7-0.7,1.8-1.6,1.8-1.6l1.8-1.5c2.5-2.1,3.8-3.9,3.8-3.9c1.3-1.8,1.3-3.7,1.3-3.7c0-1.5-0.8-2.8-0.8-2.8
		c-0.8-1.2-2.2-2-2.2-2c-1.4-0.7-3.3-0.7-3.3-0.7c-1.8,0-3.2,0.7-3.2,0.7c-1.4,0.7-2.3,2-2.3,2c-0.8,1.3-1,3-1,3l2.6,0.4
		c0.1-2,1.1-3,1.1-3c1-1,2.8-1,2.8-1c1.1,0,1.9,0.4,1.9,0.4c0.9,0.4,1.4,1.2,1.4,1.2c0.5,0.8,0.5,1.7,0.5,1.7c0,1.4-1,2.9-1,2.9
		c-1.1,1.5-3.4,3.4-3.4,3.4l-1.6,1.3c-2.4,2-3.5,3.6-3.5,3.6c-1.2,1.6-1.2,3.4-1.2,3.4h13.3v-2.4h-9.9
		C472.8,266.8,473.5,266.1,473.5,266.1z"/>
</g>
</svg>
