<?xml version="1.0" encoding="utf-8"?>
<!-- Generator: Adobe Illustrator 21.0.0, SVG Export Plug-In . SVG Version: 6.00 Build 0)  -->
<svg version="1.1" id="Слой_1" xmlns="http://www.w3.org/2000/svg" xmlns:xlink="http://www.w3.org/1999/xlink" x="0px" y="0px"
	 viewBox="0 0 825.5 258.6" style="enable-background:new 0 0 825.5 258.6;" xml:space="preserve">
<g>
	<rect x="193.4" y="87.2" transform="matrix(0.4997 -0.8662 0.8662 0.4997 2.0448 223.5728)" width="2.4" height="45.6"/>
	<rect x="134.1" y="121.4" width="2.4" height="45.6"/>
	<rect x="171.8" y="177.3" transform="matrix(0.8661 -0.4998 0.4998 0.8661 -63.1492 121.1374)" width="45.6" height="2.4"/>
	<rect x="297.4" y="75.5" transform="matrix(0.5878 -0.809 0.809 0.5878 49.2604 279.2323)" width="2.4" height="31.6"/>
	<path d="M293.2,34.3L293.2,34.3l0.4-1.1h1.1h53.6h1.1l10.8,33.1l2.3-0.7l-10.4-32l0,0l-0.9-2.7h-0.9h-2h-53.6h-2h-0.9l-0.3,0.9
		L273.9,86l-49.2,28l-49.1-28.4l-0.7-0.4l-0.8,0.5L124.9,114L97.4,98.1l-1.2,2.1l27.6,15.9v56.2l-49.3,28.5l-33.4,19.3l1.2,2.1
		l33.4-19.3l49.3-28.5l49.3,28.5l0,0l0.6,0.3l0.6-0.3l0,0l48.2-27.8l0,0l2.3-1.3V173v-2v-54.9l48.9-27.8l29.9,21.7l1.4-1.9
		l-29.8-21.6L293.2,34.3z M223.5,172.3l-47.6,27.5l0,0l-1.1,0.7l-1.1-0.7l0,0l-47.6-27.5v-56.2l47.6-27.5l0,0l1.1-0.6l1.1,0.6l0,0
		l47.6,27.5V171V172.3z"/>
	<rect x="33.9" y="201.3" transform="matrix(0.8658 -0.5004 0.5004 0.8658 -94.1968 53.7829)" width="38.5" height="2.4"/>
	<rect x="44.3" y="219.2" transform="matrix(0.8661 -0.4998 0.4998 0.8661 -101.674 61.2608)" width="38.5" height="2.4"/>
	<rect x="336" y="102.6" transform="matrix(0.8083 -0.5888 0.5888 0.8083 4.9925 222.8861)" width="17.7" height="2.4"/>
	<rect x="298.7" y="41.2" width="45.6" height="2.4"/>
	<polygon points="469.4,83.3 469.7,80.9 466,80.9 466.2,83.3 	"/>
	<polygon points="470.8,71.3 464.9,71.3 465.2,73.7 470.5,73.7 	"/>
	<polygon points="474.8,35.3 475,32.9 460.6,32.9 460.9,35.3 	"/>
	<polygon points="474,42.5 461.7,42.5 462,44.9 473.7,44.9 	"/>
	<polygon points="472.9,52.1 462.8,52.1 463,54.5 472.6,54.5 	"/>
	<polygon points="471.8,61.7 463.8,61.7 464.1,64.1 471.6,64.1 	"/>
	<rect x="653" y="169.6" width="22.8" height="2.4"/>
	<rect x="680.4" y="84.7" transform="matrix(0.588 -0.8089 0.8089 0.588 193.9002 595.6241)" width="2.4" height="45.6"/>
	<rect x="632.9" y="117.8" transform="matrix(0.9511 -0.3089 0.3089 0.9511 -9.9457 202.3786)" width="2.4" height="29.7"/>
	<polygon points="811.4,115 762.1,86.5 762.1,50.6 759.7,50.6 759.7,86.5 711.1,114.6 666.7,82.4 666.7,82.4 665.1,81.2 665.1,81.2 
		665.1,81.2 664.4,80.7 663.7,81.2 663.7,81.2 663.3,81.5 662.1,82.4 662.1,82.4 617.7,114.6 574,89.2 574,50.2 571.6,50.2 
		571.6,87.8 570,86.8 570,86.8 567.7,85.5 565.3,86.8 565.3,86.8 563.6,87.8 563.6,50.2 561.2,50.2 561.2,89.2 533.7,105.1 
		534.9,107.1 567.6,88.2 568.3,88.7 616.8,116.8 627.7,150.3 630,149.5 619.2,116.5 664.4,83.7 709.6,116.5 698.9,149.5 
		701.1,150.3 712,116.8 760.9,88.6 810.2,117.1 	"/>
	<rect x="87.7" y="72.1" width="3.5" height="28.6"/>
	<path d="M65,99.4c3,1.8,7.1,1.8,7.1,1.8c3,0,5.6-1.1,5.6-1.1c2.5-1.2,4.2-3.3,4.2-3.3c1.6-2.2,2.3-5.1,2.3-5.1l-3.7-0.9
		c-0.8,3.5-3,5.4-3,5.4c-2.2,1.8-5.5,1.8-5.5,1.8c-2.9,0-5-1.4-5-1.4c-2-1.4-3.1-4.1-3.1-4.1c-1.1-2.7-1.1-6.3-1.1-6.3
		c0-3.3,1.1-5.9,1.1-5.9c1.1-2.6,3.2-4,3.2-4c2.1-1.5,5.1-1.5,5.1-1.5c3,0,5,1.5,5,1.5c2,1.5,2.8,4.5,2.8,4.5l3.7-0.9
		c-1.1-4.1-4.1-6.2-4.1-6.2c-3-2.2-7.4-2.2-7.4-2.2c-3.9,0-6.9,1.8-6.9,1.8c-3,1.8-4.7,5.1-4.7,5.1c-1.7,3.3-1.7,7.8-1.7,7.8
		c0,4.7,1.6,8,1.6,8C62,97.6,65,99.4,65,99.4z"/>
	<polygon points="328.9,128.3 328.8,128.3 314.4,105.9 310.5,105.9 310.5,134.5 314.1,134.5 314.1,112.2 314.2,112.2 328.6,134.5 
		332.5,134.5 332.5,105.9 328.9,105.9 	"/>
	<polygon points="32.5,238.2 32.4,238.2 18.1,215.8 14.2,215.8 14.2,244.5 17.8,244.5 17.8,222.1 17.8,222.1 32.2,244.5 36.1,244.5 
		36.1,215.8 32.5,215.8 	"/>
	<polygon points="375.5,94.4 375.4,94.4 361,72.1 357.1,72.1 357.1,100.7 360.7,100.7 360.7,78.3 360.8,78.3 375.2,100.7 
		379.1,100.7 379.1,72.1 375.5,72.1 	"/>
	<polygon points="470.2,86.8 467.8,85.5 467.2,85.9 418,114.3 416.8,113.6 416.8,113.6 385.2,95.3 384,97.4 417.4,116.7 
		417.4,116.7 418,117 418.6,116.7 418.6,116.7 418.6,116.7 420.3,115.7 420.3,115.7 466.7,88.9 466.7,88.9 467.9,88.2 500.6,107.1 
		501.8,105.1 470.2,86.8 	"/>
	<polygon points="525.1,123.2 525,123.2 510.7,100.9 506.8,100.9 506.8,129.5 510.4,129.5 510.4,107.1 510.4,107.1 524.8,129.5 
		528.7,129.5 528.7,100.9 525.1,100.9 	"/>
	<polygon points="524.8,145.2 510.7,145.2 510.7,133.5 506.9,133.5 506.9,162.1 510.7,162.1 510.7,148.6 524.8,148.6 524.8,162.1 
		528.6,162.1 528.6,133.5 524.8,133.5 	"/>
	<path d="M560.6,41.9c3.1,1.9,7,1.9,7,1.9c3.9,0,7-1.8,7-1.8c3.1-1.8,4.9-5.2,4.9-5.2c1.8-3.4,1.8-7.8,1.8-7.8
		c0-4.5-1.8-7.8-1.8-7.8c-1.8-3.4-4.9-5.2-4.9-5.2c-3.1-1.8-7-1.8-7-1.8c-3.9,0-7,1.8-7,1.8c-3.1,1.8-4.9,5.2-4.9,5.2
		c-1.8,3.4-1.8,7.8-1.8,7.8c0,4.3,1.8,7.7,1.8,7.7C557.5,40.1,560.6,41.9,560.6,41.9z M559.1,22.9c1.2-2.6,3.4-4,3.4-4
		c2.2-1.4,5.1-1.4,5.1-1.4c2.9,0,5.1,1.4,5.1,1.4c2.2,1.4,3.4,4,3.4,4c1.2,2.6,1.2,6.2,1.2,6.2c0,3.5-1.2,6.1-1.2,6.1
		c-1.2,2.6-3.5,4-3.5,4c-2.2,1.4-5.1,1.4-5.1,1.4c-2.8,0-5-1.4-5-1.4c-2.2-1.4-3.4-3.9-3.4-3.9c-1.3-2.6-1.3-6.2-1.3-6.2
		C557.8,25.5,559.1,22.9,559.1,22.9z"/>
	<polygon points="643,178.3 642.9,178.3 628.6,156 624.6,156 624.6,184.6 628.2,184.6 628.2,162.3 628.3,162.3 642.7,184.6 
		646.6,184.6 646.6,156 643,156 	"/>
	<polygon points="700.6,178.3 700.5,178.3 686.2,156 682.2,156 682.2,184.6 685.8,184.6 685.8,162.3 685.9,162.3 700.3,184.6 
		704.2,184.6 704.2,156 700.6,156 	"/>
	<polygon points="726.1,167.7 712,167.7 712,156 708.2,156 708.2,184.6 712,184.6 712,171.1 726.1,171.1 726.1,184.6 729.9,184.6 
		729.9,156 726.1,156 	"/>
	<path d="M753.9,42.3c3.1,1.8,7,1.8,7,1.8c3.9,0,7-1.8,7-1.8c3.1-1.8,4.9-5.2,4.9-5.2c1.8-3.4,1.8-7.8,1.8-7.8
		c0-4.5-1.8-7.8-1.8-7.8c-1.8-3.3-4.9-5.2-4.9-5.2c-3.1-1.8-7-1.8-7-1.8c-3.9,0-7,1.8-7,1.8c-3.1,1.8-4.9,5.2-4.9,5.2
		c-1.8,3.4-1.8,7.8-1.8,7.8c0,4.3,1.8,7.7,1.8,7.7C750.8,40.5,753.9,42.3,753.9,42.3z M752.4,23.2c1.2-2.6,3.4-4,3.4-4
		c2.2-1.4,5.1-1.4,5.1-1.4c2.9,0,5.1,1.4,5.1,1.4c2.2,1.4,3.4,4,3.4,4c1.2,2.6,1.2,6.2,1.2,6.2c0,3.6-1.2,6.2-1.2,6.2
		c-1.3,2.6-3.5,4-3.5,4c-2.2,1.4-5.1,1.4-5.1,1.4c-2.8,0-5-1.4-5-1.4c-2.2-1.4-3.5-4-3.5-4c-1.2-2.6-1.2-6.1-1.2-6.1
		C751.1,25.9,752.4,23.2,752.4,23.2z"/>
	<polygon points="782.4,30.2 796.5,30.2 796.5,43.7 800.3,43.7 800.3,15.1 796.5,15.1 796.5,26.8 782.4,26.8 782.4,15.1 778.6,15.1 
		778.6,43.7 782.4,43.7 	"/>
</g>
</svg>
