<?xml version="1.0" encoding="utf-8"?>
<!-- Generator: Adobe Illustrator 21.0.0, SVG Export Plug-In . SVG Version: 6.00 Build 0)  -->
<svg version="1.1" id="Слой_1" xmlns="http://www.w3.org/2000/svg" xmlns:xlink="http://www.w3.org/1999/xlink" x="0px" y="0px"
	 viewBox="0 0 797.3 549.3" style="enable-background:new 0 0 797.3 549.3;" xml:space="preserve">
<g>
	<rect x="274.9" y="132.1" width="22.9" height="2.4"/>
	<rect x="255.7" y="190.6" transform="matrix(0.5877 -0.8091 0.8091 0.5877 -66.6979 295.8732)" width="2.4" height="45.6"/>
	<path d="M322.8,152.8l-2.3,0.7l11.1,34l-45.2,32.8l-45.2-32.8l11.1-34l-2.3-0.7l-11.2,34.4l-51,22.7l-1.8,0.8l-0.1,0.7h0l0,0
		l-0.2,2l0,0l-5.6,53.3l0,0l-0.2,1.9l0,0.1h0l-0.1,0.7l0.6,0.4l0,0l46,33.4l-5.9,55.9l-0.4,0.2l-0.7,0.3l0,0L169.2,382l-46-33.4
		l-0.6-0.5l-0.6,0.3l0,0l-52,23.2L34,345.4l-1.4,1.9l35.9,26.1l-5.7,54.6l0,0l-0.2,2l0,0l0,0l-0.1,0.7l2.1,1.6l0,0l44.4,32.3
		l-3.7,35.4l2.4,0.2l3.7-35.4l52-23.2v0l0.6-0.3l0.3-2.7l0,0l5.8-54.6l52-23.2l0,0l0.6-0.3l0.1-0.7h0l0,0l0.2-2l0,0l5.8-54.6
		l50.2-22.4l0,0l1.6-0.8l0.1-0.1l0,0l0.6-0.3l0.1-0.7h0l0,0l0.2-1.9l0,0l5.8-54.8l45.5-33.1l33.4,19.2l1.2-2.1l-33.6-19.3
		L322.8,152.8z M227.8,301.3L183.4,269l0,0l-1-0.7l-0.1-0.1l5.9-55.9l1.2-0.5l0,0l50.2-22.3l45.5,33l-5.9,55.9L227.8,301.3z
		 M161.9,439.8l-1.2,0.5l0,0l-50.2,22.4l-45.5-33.1l5.9-55.9l50.2-22.3l0,0l1.2-0.5l1,0.8l0,0l44.4,32.3L161.9,439.8z"/>
	<rect x="315.3" y="155.6" transform="matrix(0.951 -0.3092 0.3092 0.951 -37.3574 106.2261)" width="2.4" height="30.7"/>
	<rect x="492.4" y="223.2" width="2.4" height="45.6"/>
	<rect x="530.1" y="279" transform="matrix(0.8654 -0.501 0.501 0.8654 -65.9742 314.7224)" width="45.6" height="2.4"/>
	<path d="M584.2,219.2v-2v-0.7l-0.6-0.3l0,0l-0.4-0.3l-1.3-0.7l0,0l-47.6-27.5V151h-2.4v36.7l-48.7,28.1l-43.5-25.1v-38.9h-2.4v37.5
		l-3.4-1.9v0l-0.6-0.3l-0.6,0.4l0,0l-3.4,2v-37.6H427v39l-27.6,15.9l1.2,2.1l31.6-18.3l0,0l1.1-0.6l1.1,0.6l0,0l47.6,27.5v54.9v2
		v0.7l0.6,0.3l0,0l0.4,0.3l1.3,0.7l0,0l48.2,27.8l0,0l0.6,0.3l0.6-0.3l0,0l49.3-28.5l32.8,18.9l1.2-2.1l-32.8-18.9V219.2z
		 M484.5,217.9l48.7-28.1l48.7,28.1v1.3v54.9l-47.6,27.5l0,0l-1.1,0.7l-1.1-0.7l0,0l-47.6-27.5v-1.3V217.9z"/>
	<rect x="551.7" y="188.9" transform="matrix(0.5004 -0.8658 0.8658 0.5004 92.9109 584.4828)" width="2.4" height="45.6"/>
	<polygon points="715.5,369.6 682.8,388.6 681.7,387.9 681.7,387.9 634.1,360.5 634.1,359.2 634.1,323.8 631.7,323.8 631.7,359.2 
		631.7,361.2 631.7,361.9 634,363.2 634,363.2 682.2,391 682.2,391 682.8,391.3 683.4,391 683.4,391 683.6,390.9 685.1,390 
		685.1,390 716.7,371.7 	"/>
	<polygon points="685.1,274.7 685.1,274.7 683.5,273.8 683.4,273.7 683.4,273.7 682.8,273.4 682.2,273.7 682.2,273.7 648.8,293 
		650,295.1 681.7,276.8 681.7,276.8 682.8,276.1 731.5,304.3 731.5,305.6 731.5,340 733.8,340 733.8,305.6 733.8,303.6 733.8,302.9 
		731.5,301.5 731.5,301.5 	"/>
	<rect x="764.6" y="361.1" transform="matrix(0.501 -0.8654 0.8654 0.501 52.9944 852.5505)" width="2.4" height="38.5"/>
	<polygon points="550.3,122.3 583,103.3 632.3,131.8 632.3,131.8 632.9,132.1 633.5,131.8 633.5,131.8 681.7,104 681.7,104 
		682.9,103.2 683.4,103 683.4,103 684,102.6 684,102 684,100 684,65.3 681.6,65.3 681.6,100 681.6,101.3 634,128.7 634,128.7 
		632.9,129.4 631.8,128.7 631.8,128.7 584.2,101.3 584.2,46.4 584.2,45.1 631.8,17.6 631.8,17.6 632.9,16.9 634,17.6 634,17.6 
		664.2,35 665.5,33 633.5,14.5 633.5,14.5 632.9,14.2 632.3,14.5 632.3,14.5 584.1,42.3 584.1,42.3 582.8,43.1 582.4,43.3 
		582.4,43.3 581.8,43.7 581.8,44.4 581.8,46.4 581.8,101.3 549,120.2 	"/>
	<rect x="171.6" y="240" transform="matrix(0.1058 -0.9944 0.9944 0.1058 -66.0185 409.0191)" width="45.7" height="2.4"/>
	<rect x="227" y="280.2" transform="matrix(0.9137 -0.4064 0.4064 0.9137 -92.8266 125.8114)" width="45.6" height="2.4"/>
	<rect x="138.5" y="352" transform="matrix(0.588 -0.8089 0.8089 0.588 -245.629 267.392)" width="2.4" height="45.6"/>
	<polygon points="73.5,425.2 75.9,425.4 80.7,380.1 78.3,379.8 	"/>
	<rect x="109.7" y="441.7" transform="matrix(0.9137 -0.4064 0.4064 0.9137 -168.5665 92.0795)" width="45.6" height="2.4"/>
	<polygon points="307.7,124.8 307.8,124.8 322.2,147.1 326.1,147.1 326.1,118.5 322.5,118.5 322.5,140.8 322.5,140.8 308.1,118.5 
		304.2,118.5 304.2,147.1 307.7,147.1 	"/>
	<polygon points="250.1,124.8 250.2,124.8 264.6,147.1 268.5,147.1 268.5,118.5 264.9,118.5 264.9,140.8 264.9,140.8 250.5,118.5 
		246.6,118.5 246.6,147.1 250.1,147.1 	"/>
	<polygon points="224.7,133.6 238.7,133.6 238.7,147.1 242.6,147.1 242.6,118.5 238.7,118.5 238.7,130.2 224.7,130.2 224.7,118.5 
		220.9,118.5 220.9,147.1 224.7,147.1 	"/>
	<polygon points="643.9,317.4 643.9,288.8 640.3,288.8 640.3,311.1 640.2,311.1 625.8,288.8 621.9,288.8 621.9,317.4 625.5,317.4 
		625.5,295 625.6,295 640,317.4 	"/>
	<polygon points="740.1,368.7 740,368.7 725.6,346.4 721.7,346.4 721.7,375 725.3,375 725.3,352.6 725.4,352.6 739.8,375 743.7,375 
		743.7,346.4 740.1,346.4 	"/>
	<polygon points="525.7,122.2 525.8,122.2 540.2,144.6 544.1,144.6 544.1,116 540.5,116 540.5,138.3 540.5,138.3 526.1,116 
		522.2,116 522.2,144.6 525.7,144.6 	"/>
	<polygon points="500.3,131.1 514.3,131.1 514.3,144.6 518.2,144.6 518.2,116 514.3,116 514.3,127.7 500.3,127.7 500.3,116 
		496.5,116 496.5,144.6 500.3,144.6 	"/>
	<path d="M675.8,57.1c3.1,1.8,7,1.8,7,1.8c3.9,0,7-1.8,7-1.8c3.1-1.8,4.9-5.2,4.9-5.2c1.8-3.4,1.8-7.8,1.8-7.8
		c0-4.5-1.8-7.8-1.8-7.8c-1.8-3.3-4.9-5.2-4.9-5.2c-3.1-1.8-7-1.8-7-1.8c-3.9,0-7,1.8-7,1.8c-3.1,1.8-4.9,5.2-4.9,5.2
		c-1.8,3.4-1.8,7.8-1.8,7.8c0,4.3,1.8,7.7,1.8,7.7C672.7,55.2,675.8,57.1,675.8,57.1z M674.3,38c1.2-2.6,3.4-4,3.4-4
		c2.2-1.4,5.1-1.4,5.1-1.4c2.9,0,5.1,1.4,5.1,1.4c2.2,1.4,3.4,4,3.4,4c1.2,2.6,1.2,6.2,1.2,6.2c0,3.6-1.3,6.2-1.3,6.2
		c-1.2,2.6-3.4,4-3.4,4c-2.2,1.4-5.1,1.4-5.1,1.4c-2.8,0-5-1.4-5-1.4c-2.2-1.4-3.5-4-3.5-4c-1.2-2.6-1.2-6.1-1.2-6.1
		C673,40.6,674.3,38,674.3,38z"/>
	<polygon points="390.9,224.7 390.8,224.7 376.4,202.4 372.5,202.4 372.5,231 376.1,231 376.1,208.6 376.2,208.6 390.6,231 
		394.5,231 394.5,202.4 390.9,202.4 	"/>
	<polygon points="390.5,246.8 376.5,246.8 376.5,235 372.7,235 372.7,263.6 376.5,263.6 376.5,250.2 390.5,250.2 390.5,263.6 
		394.3,263.6 394.3,235 390.5,235 	"/>
	<path d="M426.3,143.5c3.1,1.8,7.1,1.8,7.1,1.8c3.9,0,7-1.8,7-1.8c3.1-1.8,4.9-5.2,4.9-5.2c1.8-3.4,1.8-7.8,1.8-7.8
		c0-4.5-1.8-7.8-1.8-7.8c-1.8-3.3-4.9-5.2-4.9-5.2c-3.1-1.8-7-1.8-7-1.8c-3.9,0-7,1.8-7,1.8c-3.2,1.8-4.9,5.2-4.9,5.2
		c-1.8,3.4-1.8,7.8-1.8,7.8c0,4.3,1.8,7.7,1.8,7.7C423.2,141.6,426.3,143.5,426.3,143.5z M424.8,124.4c1.2-2.6,3.4-4,3.4-4
		c2.2-1.4,5.1-1.4,5.1-1.4c2.9,0,5.1,1.4,5.1,1.4c2.2,1.4,3.4,4,3.4,4c1.2,2.6,1.2,6.2,1.2,6.2c0,3.6-1.2,6.2-1.2,6.2
		c-1.2,2.6-3.5,4-3.5,4c-2.2,1.4-5,1.4-5,1.4c-2.8,0-5.1-1.4-5.1-1.4c-2.2-1.4-3.4-4-3.4-4c-1.3-2.6-1.3-6.1-1.3-6.1
		C423.6,127,424.8,124.4,424.8,124.4z"/>
	<polygon points="95.3,535.2 99.1,535.2 99.1,522.2 112,522.2 112,518.8 99.1,518.8 99.1,510 113.5,510 113.5,506.6 95.3,506.6 	"/>
	<polygon points="14.2,352.9 18,352.9 18,339.9 30.8,339.9 30.8,336.5 18,336.5 18,327.6 32.3,327.6 32.3,324.3 14.2,324.3 	"/>
</g>
</svg>
