<?xml version="1.0" ?><svg height="88.10625mm" version="1.0" viewBox="0 0 613 333" width="162.18958mm" xmlns="http://www.w3.org/2000/svg">
  <g font-family="Helvetica" font-size="12pt" stroke-linecap="round" transform="translate(-204,-231)">
    <g stroke="#000000" stroke-width="1.0">
      <polygon fill="#000000" points="351.52 402.14 349.23 362.00 356.04 362.00 353.78 402.14" stroke="#000000"/>
    </g>
    <g stroke="#000000" stroke-width="2.26771653543">
      <line x1="352.69" x2="398.53" y1="507.95" y2="481.49"/>
    </g>
    <g stroke="#000000" stroke-width="2.26771653543">
      <line x1="398.51" x2="352.65" y1="428.56" y2="402.14"/>
    </g>
    <g stroke="#000000" stroke-width="2.26771653543">
      <line x1="306.80" x2="306.82" y1="428.59" y2="481.53"/>
    </g>
    <g stroke="#000000" stroke-width="2.26771653543">
      <line x1="398.53" x2="398.51" y1="481.49" y2="428.56"/>
    </g>
    <g stroke="#000000" stroke-width="2.26771653543">
      <line x1="352.65" x2="306.80" y1="402.14" y2="428.59"/>
    </g>
    <g stroke="#000000" stroke-width="2.26771653543">
      <line x1="306.82" x2="352.69" y1="481.53" y2="507.95"/>
    </g>
    <g stroke="#000000" stroke-width="1.0">
      <polygon fill="#000000" points="307.39 482.51 276.70 502.87 273.30 496.98 306.25 480.54" stroke="#000000"/>
    </g>
    <g stroke="#000000" stroke-width="2.26771653543">
      <line x1="403.34" x2="404.85" y1="424.03" y2="426.65"/>
      <line x1="408.73" x2="410.62" y1="420.48" y2="423.76"/>
      <line x1="414.12" x2="416.39" y1="416.93" y2="420.86"/>
      <line x1="419.52" x2="422.16" y1="413.39" y2="417.97"/>
      <line x1="424.91" x2="427.93" y1="409.84" y2="415.08"/>
      <line x1="430.30" x2="433.70" y1="406.29" y2="412.18"/>
    </g>
    <g stroke="#000000" stroke-width="2.26771653543">
      <line x1="663.08" x2="661.67" y1="450.25" y2="447.80"/>
      <line x1="657.50" x2="655.80" y1="453.81" y2="450.86"/>
      <line x1="651.91" x2="649.92" y1="457.36" y2="453.92"/>
      <line x1="646.32" x2="644.05" y1="460.91" y2="456.98"/>
      <line x1="640.73" x2="638.18" y1="464.46" y2="460.05"/>
      <line x1="635.14" x2="632.31" y1="468.02" y2="463.11"/>
      <line x1="629.55" x2="626.43" y1="471.57" y2="466.17"/>
      <line x1="623.96" x2="620.56" y1="475.12" y2="469.23"/>
    </g>
    <g stroke="#000000" stroke-width="2.26771653543">
      <line x1="647.09" x2="594.18" y1="494.63" y2="494.63"/>
    </g>
    <g stroke="#000000" stroke-width="2.26771653543">
      <line x1="758.40" x2="720.98" y1="408.30" y2="445.72"/>
    </g>
    <g stroke="#000000" stroke-width="2.26771653543">
      <line x1="758.40" x2="758.40" y1="355.39" y2="408.30"/>
    </g>
    <g stroke="#000000" stroke-width="2.26771653543">
      <line x1="720.98" x2="668.11" y1="445.72" y2="445.72"/>
    </g>
    <g stroke="#000000" stroke-width="2.26771653543">
      <line x1="668.11" x2="630.69" y1="445.72" y2="408.30"/>
    </g>
    <g stroke="#000000" stroke-width="2.26771653543">
      <line x1="720.98" x2="758.40" y1="318.01" y2="355.39"/>
    </g>
    <g stroke="#000000" stroke-width="2.26771653543">
      <line x1="630.69" x2="630.69" y1="408.30" y2="355.39"/>
    </g>
    <g stroke="#000000" stroke-width="2.26771653543">
      <line x1="630.69" x2="668.11" y1="355.39" y2="318.01"/>
    </g>
    <g stroke="#000000" stroke-width="2.26771653543">
      <line x1="668.11" x2="720.98" y1="318.01" y2="318.01"/>
    </g>
    <g stroke="#000000" stroke-width="2.26771653543">
      <line x1="763.97" x2="765.05" y1="351.55" y2="354.17"/>
      <line x1="769.97" x2="771.27" y1="348.76" y2="351.91"/>
      <line x1="775.97" x2="777.48" y1="345.97" y2="349.64"/>
      <line x1="781.97" x2="783.70" y1="343.18" y2="347.37"/>
      <line x1="787.97" x2="789.92" y1="340.39" y2="345.11"/>
      <line x1="793.97" x2="796.14" y1="337.60" y2="342.84"/>
      <line x1="799.97" x2="802.35" y1="334.81" y2="340.58"/>
      <line x1="805.97" x2="808.57" y1="332.03" y2="338.31"/>
    </g>
    <g stroke="#000000" stroke-width="2.26771653543">
      <line x1="625.49" x2="624.33" y1="412.10" y2="409.30"/>
      <line x1="619.85" x2="618.40" y1="414.84" y2="411.35"/>
      <line x1="614.21" x2="612.48" y1="417.59" y2="413.40"/>
      <line x1="608.58" x2="606.55" y1="420.33" y2="415.45"/>
      <line x1="602.94" x2="600.62" y1="423.08" y2="417.49"/>
      <line x1="597.30" x2="594.70" y1="425.82" y2="419.54"/>
    </g>
    <g stroke="#000000" stroke-width="1.0">
      <polygon fill="#000000" points="759.45 408.72 740.55 462.47 734.22 459.96 757.35 407.88" stroke="#000000"/>
    </g>
    <g stroke="#000000" stroke-width="2.26771653543">
      <line x1="490.17" x2="457.00" y1="428.56" y2="409.40"/>
    </g>
    <g stroke="#000000" stroke-width="2.26771653543">
      <line x1="716.53" x2="719.15" y1="441.02" y2="439.51"/>
      <line x1="713.05" x2="716.33" y1="435.76" y2="433.87"/>
      <line x1="709.58" x2="713.51" y1="430.49" y2="428.23"/>
      <line x1="706.10" x2="710.69" y1="425.23" y2="422.58"/>
      <line x1="702.63" x2="707.87" y1="419.96" y2="416.94"/>
      <line x1="699.15" x2="705.05" y1="414.70" y2="411.30"/>
    </g>
    <g stroke="#000000" stroke-width="2.26771653543">
      <line x1="567.00" x2="535.97" y1="420.01" y2="402.10"/>
    </g>
    <g stroke="#000000" stroke-width="2.26771653543">
      <line x1="747.69" x2="733.33" y1="494.17" y2="522.36"/>
      <line x1="742.35" x2="727.98" y1="491.45" y2="519.64"/>
    </g>
    <g stroke="#000000" stroke-width="2.26771653543">
      <line x1="535.97" x2="490.17" y1="402.10" y2="428.56"/>
    </g>
    <g stroke="#000000" stroke-width="1.0">
      <polygon fill="#000000" points="719.94 317.58 732.76 280.70 739.04 283.30 722.03 318.44" stroke="#000000"/>
    </g>
    <g stroke="#000000" stroke-width="6.8031496063">
      <line x1="684.93" x2="737.39" y1="461.14" y2="461.22"/>
    </g>
    <g stroke="#000000" stroke-width="2.26771653543">
      <line x1="668.11" x2="622.26" y1="318.01" y2="291.55"/>
    </g>
    <g stroke="#000000" stroke-width="2.26771653543">
      <line x1="797.25" x2="745.02" y1="484.57" y2="492.81"/>
    </g>
    <g stroke="#000000" stroke-width="2.26771653543">
      <line x1="758.40" x2="805.53" y1="408.30" y2="432.30"/>
    </g>
    <g stroke="#000000" stroke-width="2.26771653543">
      <line x1="745.02" x2="720.98" y1="492.81" y2="445.72"/>
    </g>
    <g stroke="#000000" stroke-width="2.26771653543">
      <line x1="805.53" x2="797.25" y1="432.30" y2="484.57"/>
    </g>
    <g stroke="#000000" stroke-width="2.26771653543">
      <line x1="666.69" x2="669.52" y1="311.40" y2="311.40"/>
      <line x1="666.41" x2="669.81" y1="304.78" y2="304.78"/>
      <line x1="666.12" x2="670.09" y1="298.17" y2="298.17"/>
      <line x1="665.84" x2="670.37" y1="291.55" y2="291.55"/>
      <line x1="665.56" x2="670.66" y1="284.94" y2="284.94"/>
      <line x1="665.27" x2="670.94" y1="278.32" y2="278.32"/>
      <line x1="664.99" x2="671.23" y1="271.71" y2="271.71"/>
      <line x1="664.71" x2="671.51" y1="265.10" y2="265.10"/>
    </g>
    <g stroke="#000000" stroke-width="2.26771653543">
      <line x1="668.11" x2="647.09" y1="445.72" y2="494.63"/>
    </g>
    <g stroke="#000000" stroke-width="2.26771653543">
      <line x1="622.26" x2="622.26" y1="291.55" y2="238.64"/>
      <line x1="630.20" x2="630.20" y1="287.58" y2="242.61"/>
    </g>
    <g stroke="#000000" stroke-width="1.0">
      <polygon fill="#000000" points="646.34 493.78 682.67 458.59 687.18 463.69 647.84 495.48" stroke="#000000"/>
    </g>
    <g stroke="#000000" stroke-width="2.26771653543">
      <line x1="532.97" x2="532.97" y1="402.10" y2="362.00"/>
      <line x1="538.97" x2="538.97" y1="402.10" y2="362.00"/>
    </g>
    <text fill="#000000" font-family="Arial" font-size="24pt" x="707.30" y="546.98">O</text>
    <text fill="#000000" font-family="Arial" font-size="24pt" textLength="50.7" x="728.30" y="276.10">OH</text>
    <text fill="#000000" font-family="Arial" font-size="24pt" x="568.30" y="435.56">O</text>
    <text fill="#000000" font-family="Arial" font-size="24pt" x="522.30" y="356.19">O</text>
    <text fill="#000000" font-family="Arial" font-size="24pt" x="433.30" y="409.10">S</text>
    <text fill="#000000" font-family="Arial" font-size="24pt" x="682.30" y="406.87">H</text>
    <text fill="#000000" font-family="Arial" font-size="24pt" textLength="50.7" x="339.30" y="356.22">OH</text>
    <text fill="#000000" font-family="Arial" font-size="24pt" x="249.30" y="515.01">N</text>
    <text fill="#000000" font-family="Arial" font-size="24pt" textLength="23" x="212.00" y="515.00">H</text>
    <text fill="#000000" font-family="Arial" font-size="16pt" textLength="12" x="236.00" y="524.00">2</text>
  </g>
</svg>