<?xml version="1.0" encoding="utf-8"?>
<!-- Generator: Adobe Illustrator 19.2.1, SVG Export Plug-In . SVG Version: 6.00 Build 0)  -->
<svg version="1.1" id="Слой_1" xmlns="http://www.w3.org/2000/svg" xmlns:xlink="http://www.w3.org/1999/xlink" x="0px" y="0px"
	 viewBox="0 0 693.7 371.3" style="enable-background:new 0 0 693.7 371.3;" xml:space="preserve">
<g>
	<polygon points="292.3,171.5 301.1,176.6 302,174.4 293.7,169.6 	"/>
	<polygon points="286.5,179.3 297.2,185.4 298.1,183.2 288,177.4 	"/>
	<polygon points="313.7,147.8 310.9,146.2 309.5,148.2 312.7,150 	"/>
	<polygon points="303.7,156 308.8,158.9 309.8,156.7 305.1,154 	"/>
	<polygon points="280.8,187.1 293.3,194.3 294.3,192.1 282.3,185.2 	"/>
	<polygon points="298,163.8 304.9,167.8 305.9,165.5 299.4,161.8 	"/>
	<rect x="289.5" y="201.1" transform="matrix(0.8658 -0.5004 0.5004 0.8658 -73.0418 175.4969)" width="2.4" height="45.6"/>
	<path d="M314.1,246L314.1,246l1.4-2.4l-0.4-0.7l-27.7-48l0,0l-1.3-2.3h-0.7h-2h-53.6h-2H227l-1.3,2.3l0,0l-27.7,48l-0.4,0.7
		l1.3,2.4l0,0l26.8,46.4l0,0l1.3,2.3h0.7h2h54.9l16.9,29.2l2.1-1.2l-16.9-29.2L314.1,246z M228.3,292.4l-28.1-48.7l0.7-1.1l0,0
		l27.5-47.6h1.3h53.6h1.3l27.5,47.6l0,0l0.7,1.1l-28.1,48.7h-54.9H228.3z"/>
	<rect x="199.4" y="222.7" transform="matrix(0.5004 -0.8658 0.8658 0.5004 -82.8448 304.2889)" width="45.6" height="2.4"/>
	<polygon points="164.4,116.5 198.2,136 199.4,134 165.6,114.4 165.6,58.2 214.9,29.8 213.7,27.7 164.4,56.1 131.9,37.4 130.7,39.4 
		163.2,58.2 163.2,114.4 115.7,141.9 115.6,141.9 114.5,142.5 82,123.8 80.8,125.8 112.2,144 112.2,144 113.9,145 113.9,145 
		113.9,145 114.5,145.3 115.1,145 115.1,145 	"/>
	<rect x="111.5" y="119.3" transform="matrix(0.8658 -0.5004 0.5004 0.8658 -42.2998 83.3839)" width="45.6" height="2.4"/>
	<rect x="233.7" y="282" width="45.6" height="2.4"/>
	<rect x="138.9" y="39.3" transform="matrix(0.5 -0.866 0.866 0.5 22.0098 149.056)" width="2.4" height="32.2"/>
	<polygon points="63.5,94.2 65.9,94.2 65.9,58.2 98.3,39.4 97.1,37.4 64.7,56.1 15.4,27.7 14.2,29.8 63.5,58.2 	"/>
	<rect x="73.8" y="63.5" width="2.4" height="30.6"/>
	<path d="M427.9,76.4h-2.4v39.7l-8-4.6V76.4h-2.4v34.1L372,142.2l-27.1-47l0,0l-2-3.5l-2,3.5l0,0l-27.1,47l-43.5-31.9l-13.2,7.6l0,0
		l-25.2,14.5l1.2,2.1l26.6-15.3l53.9,25.8l0.6-1l0,0v1.2h55.6h2h0.3l0.3-0.2l0,0l53.5-26l28.2,16.3l1.2-2.1l-27.3-15.8V76.4z
		 M369.6,142.7h-53.4l26.7-46.3L369.6,142.7z"/>
	<rect x="568.1" y="119.3" transform="matrix(0.8658 -0.5004 0.5004 0.8658 18.9824 311.8734)" width="45.6" height="2.4"/>
	<rect x="589.7" y="29.3" transform="matrix(0.5004 -0.8658 0.8658 0.5004 250.1319 537.67)" width="2.4" height="45.6"/>
	<rect x="530.5" y="77.6" width="2.4" height="31.6"/>
	<polygon points="656.3,35.8 621.1,56.1 573.5,28.7 573.5,28.7 571.2,27.3 570.6,27.7 570.6,27.7 537.5,46.8 538.7,48.9 570.1,30.8 
		570.1,30.8 571.2,30.1 619.9,58.2 619.9,113.1 619.9,114.4 571.2,142.5 570.1,141.9 570.1,141.9 522.5,114.4 522.5,77.6 
		520.1,77.6 520.1,114.4 487.6,133.2 488.8,135.3 521.3,116.5 570.5,145 571.2,145.3 573.5,144 573.5,144 619.9,117.2 619.9,117.2 
		622.3,115.8 622.3,115.1 622.3,113.1 622.3,58.2 657.5,37.9 	"/>
	<path d="M201.3,143.7c0,9,5,14.6,13,14.6s13-5.6,13-14.6c0-8.9-5-14.6-13-14.6S201.3,134.8,201.3,143.7z M223.7,143.7
		c0,7-3.6,11.3-9.4,11.3s-9.4-4.4-9.4-11.3c0-6.9,3.6-11.3,9.4-11.3S223.7,136.8,223.7,143.7z"/>
	<polygon points="305.5,357.1 309,357.1 309,344.9 321.5,344.9 321.5,341.8 309,341.8 309,332 322.6,332 322.6,328.9 305.5,328.9 	
		"/>
	<polygon points="72.4,122.7 72.3,122.7 56.8,100.6 53.4,100.6 53.4,128.8 56.9,128.8 56.9,106.7 57.1,106.7 72.5,128.8 75.9,128.8 
		75.9,100.6 72.4,100.6 	"/>
	<polygon points="106.7,20.3 106.9,20.3 122.3,42.4 125.8,42.4 125.8,14.2 122.3,14.2 122.3,36.3 122.1,36.3 106.7,14.2 103.3,14.2 
		103.3,42.4 106.7,42.4 	"/>
	<polygon points="479.2,151.5 479,151.5 463.6,129.4 460.2,129.4 460.2,157.6 463.7,157.6 463.7,135.5 463.8,135.5 479.3,157.6 
		482.7,157.6 482.7,129.4 479.2,129.4 	"/>
	<polygon points="479.2,173.7 463.7,173.7 463.7,161.6 460.2,161.6 460.2,189.7 463.7,189.7 463.7,176.9 479.2,176.9 479.2,189.7 
		482.7,189.7 482.7,161.6 479.2,161.6 	"/>
	<path d="M421.5,71.8c8,0,13-5.6,13-14.6c0-8.9-5-14.6-13-14.6s-13,5.6-13,14.6C408.5,66.2,413.5,71.8,421.5,71.8z M421.5,46
		c5.8,0,9.4,4.4,9.4,11.3c0,7-3.6,11.3-9.4,11.3c-5.8,0-9.4-4.4-9.4-11.3C412.2,50.4,415.8,46,421.5,46z"/>
	<polygon points="513.5,49.1 513.7,49.1 529.1,71.2 532.5,71.2 532.5,43 529.1,43 529.1,65.1 528.9,65.1 513.5,43 510.1,43 
		510.1,71.2 513.5,71.2 	"/>
	<polygon points="679.5,17.3 679.5,14.2 662.4,14.2 662.4,42.4 665.9,42.4 665.9,30.1 678.4,30.1 678.4,27 665.9,27 665.9,17.3 	"/>
</g>
</svg>
