<?xml version="1.0" encoding="utf-8"?>
<!-- Generator: Adobe Illustrator 19.2.1, SVG Export Plug-In . SVG Version: 6.00 Build 0)  -->
<svg version="1.1" id="Слой_1" xmlns="http://www.w3.org/2000/svg" xmlns:xlink="http://www.w3.org/1999/xlink" x="0px" y="0px"
	 viewBox="0 0 751.6 259.1" style="enable-background:new 0 0 751.6 259.1;" xml:space="preserve">
<g>
	<polygon points="522.8,164.2 520.4,164.2 520.4,201.1 489.2,219.1 490.4,221.1 521.7,203.1 558.6,215.1 559.4,212.8 522.8,200.9 	
		"/>
	<rect x="545.1" y="182.2" transform="matrix(0.309 -0.9511 0.9511 0.309 188.3304 657.0363)" width="2.4" height="33.4"/>
	<polygon points="577.3,125.7 576.8,125 576,125.2 538.5,137.4 539.3,139.7 575.9,127.8 576.5,128.7 576.5,128.7 608.7,173 
		589.7,199.1 591.7,200.5 610.8,174.2 650.1,174.2 650.1,171.8 610.8,171.8 	"/>
	<rect x="583.7" y="132.9" transform="matrix(0.809 -0.5878 0.5878 0.809 20.1496 373.5302)" width="2.4" height="45.6"/>
	<path d="M353.1,124.9l-31,17.9l-48.7-28.1V59.8v-2l0-0.7l-0.6-0.3l-49.9-28.8l-0.6-0.3l-0.6,0.3l-49.3,28.5l-33.9-19.6l-1.2,2.1
		l33.9,19.6v54.9v2l0,0.7l0.6,0.3l49.9,28.8l0.6,0.3l0.6-0.3l49.3-28.5l49.3,28.5l0.6,0.3l0.6-0.3l1.7-1l0,0l29.9-17.3L353.1,124.9z
		 M172.4,57.8L172.4,57.8L172.4,57.8L172.4,57.8z M173.6,58.5l48.7-28.1l48.7,28.1v1.3v54.9l-48.7,28.1l-47.6-27.5v0l-1.1-0.7v-1.3
		V58.5z"/>
	<rect x="240.8" y="29.5" transform="matrix(0.5 -0.866 0.866 0.5 75.6789 235.7647)" width="2.4" height="45.6"/>
	<rect x="181.5" y="63.7" width="2.4" height="45.6"/>
	<rect x="219.2" y="119.6" transform="matrix(0.8663 -0.4996 0.4996 0.8663 -27.9759 137.0618)" width="45.6" height="2.4"/>
	<polygon points="104.9,40.5 103.7,38.5 72.6,56.4 34.5,34.4 33.3,36.4 71,58.2 54.4,86.9 56.5,88.1 72.6,60.2 88.8,88.1 90.8,86.9 
		74.3,58.2 	"/>
	<rect x="675.6" y="145" transform="matrix(0.4996 -0.8663 0.8663 0.4996 215.2702 665.0396)" width="15.4" height="2.4"/>
	<rect x="676.4" y="193.9" transform="matrix(0.866 -0.5 0.5 0.866 -9.3532 365.6161)" width="2.4" height="12.8"/>
	<rect x="685.3" y="188.7" transform="matrix(0.866 -0.5 0.5 0.866 -5.5574 369.4144)" width="2.4" height="12.8"/>
	<path d="M423,199.8v-54.9l48.7-28.1l1.1,0.7l0,0l31.4,18.1l1.2-2.1L474,115.3l0,0l-1.7-1l-0.6-0.3l-0.6,0.3l-1.7,1l0,0l-47.4,27.4
		l-30.8-25.1l-7.6,13.2l37.1,14.2v54.8v2l0,0.7l0.6,0.3l34.4,19.9l1.2-2.1L423,201.1V199.8z M421.8,144.2L421.8,144.2L421.8,144.2
		L421.8,144.2z"/>
	<path d="M471.7,215.8c-8,0-13,5.6-13,14.6s5,14.6,13,14.6c8,0,13-5.6,13-14.6S479.7,215.8,471.7,215.8z M471.7,241.6
		c-5.8,0-9.4-4.4-9.4-11.3c0-7,3.6-11.3,9.4-11.3c5.8,0,9.4,4.4,9.4,11.3C481.1,237.3,477.4,241.6,471.7,241.6z"/>
	<polygon points="513.8,135.7 514,135.7 529.4,157.8 532.8,157.8 532.8,129.6 529.3,129.6 529.3,151.7 529.2,151.7 513.7,129.6 
		510.3,129.6 510.3,157.8 513.8,157.8 	"/>
	<polygon points="584.1,227.1 583.9,227.1 568.5,205 565.1,205 565.1,233.2 568.6,233.2 568.6,211.1 568.7,211.1 584.2,233.2 
		587.6,233.2 587.6,205 584.1,205 	"/>
	<path d="M371.9,100.6c-8,0-13,5.6-13,14.6c0,8.9,5,14.6,13,14.6s13-5.6,13-14.6C384.9,106.2,379.9,100.6,371.9,100.6z M371.9,126.4
		c-5.8,0-9.4-4.4-9.4-11.3c0-7,3.6-11.3,9.4-11.3c5.8,0,9.4,4.4,9.4,11.3C381.3,122.1,377.7,126.4,371.9,126.4z"/>
	<path d="M122.5,14.2c-8,0-13,5.6-13,14.6s5,14.6,13,14.6c8,0,13-5.6,13-14.6S130.5,14.2,122.5,14.2z M122.5,40
		c-5.8,0-9.4-4.4-9.4-11.3c0-7,3.6-11.3,9.4-11.3c5.8,0,9.4,4.4,9.4,11.3C131.9,35.7,128.3,40,122.5,40z"/>
	<polygon points="92.9,121.3 96.4,121.3 96.4,109.1 108.9,109.1 108.9,105.9 96.4,105.9 96.4,96.3 110,96.3 110,93.1 92.9,93.1 	"/>
	<polygon points="14.2,42.6 17.7,42.6 17.7,30.4 30.2,30.4 30.2,27.3 17.7,27.3 17.7,17.6 31.3,17.6 31.3,14.4 14.2,14.4 	"/>
	<polygon points="35.3,121.3 38.8,121.3 38.8,109.1 51.3,109.1 51.3,105.9 38.8,105.9 38.8,96.3 52.4,96.3 52.4,93.1 35.3,93.1 	"/>
	<polygon points="679,186.6 679,158.4 675.6,158.4 675.6,180.5 675.4,180.5 660,158.4 656.5,158.4 656.5,186.6 660,186.6 660,164.5 
		660.2,164.5 675.6,186.6 	"/>
	<polygon points="701.1,164.2 698.5,164.2 698.5,171.5 691.5,171.5 691.5,174.2 698.5,174.2 698.5,181.7 701.1,181.7 701.1,174.2 
		708.1,174.2 708.1,171.5 701.1,171.5 	"/>
	<path d="M699.8,159.8c-7.3,0-13.2,5.9-13.2,13.2c0,7.3,5.9,13.2,13.2,13.2c7.3,0,13.2-5.9,13.2-13.2
		C712.9,165.7,707.1,159.8,699.8,159.8z M699.8,183.7c-5.9,0-10.8-4.8-10.8-10.8c0-5.9,4.8-10.8,10.8-10.8c5.9,0,10.8,4.8,10.8,10.8
		C710.5,178.9,705.7,183.7,699.8,183.7z"/>
	<path d="M696.6,137.4c8,0,13-5.6,13-14.6c0-8.9-5-14.6-13-14.6c-8,0-13,5.6-13,14.6C683.6,131.8,688.6,137.4,696.6,137.4z
		 M696.6,111.5c5.8,0,9.4,4.4,9.4,11.3c0,6.9-3.6,11.3-9.4,11.3c-5.8,0-9.4-4.4-9.4-11.3C687.2,115.9,690.8,111.5,696.6,111.5z"/>
	<rect x="715.9" y="105.8" width="16.8" height="2.7"/>
	<path d="M724.3,93.9c-7.3,0-13.2,5.9-13.2,13.2c0,7.3,5.9,13.2,13.2,13.2s13.2-5.9,13.2-13.2C737.5,99.8,731.6,93.9,724.3,93.9z
		 M724.3,117.8c-5.9,0-10.8-4.8-10.8-10.8c0-5.9,4.8-10.8,10.8-10.8s10.8,4.8,10.8,10.8C735.1,113,730.2,117.8,724.3,117.8z"/>
	<path d="M696.6,208.1c-8,0-13,5.6-13,14.6c0,8.9,5,14.6,13,14.6c8,0,13-5.6,13-14.6C709.6,213.7,704.6,208.1,696.6,208.1z
		 M696.6,233.9c-5.8,0-9.4-4.4-9.4-11.3c0-7,3.6-11.3,9.4-11.3c5.8,0,9.4,4.4,9.4,11.3C706,229.6,702.4,233.9,696.6,233.9z"/>
</g>
</svg>
