<svg id="Слой_1" data-name="Слой 1" xmlns="http://www.w3.org/2000/svg" viewBox="0 0 753.17 413.49"><defs><style>.cls-1{fill:#201600;}.cls-2{fill:#7f7f7f;}</style></defs><title>Безымянный-1</title><rect class="cls-1" x="530.95" y="171.5" width="2.4" height="45.64"/><rect class="cls-1" x="568.61" y="227.36" width="45.65" height="2.4" transform="translate(-34.99 326.65) rotate(-30.03)"/><rect class="cls-1" x="590.23" y="137.29" width="2.4" height="45.63" transform="translate(157.21 592.39) rotate(-60.02)"/><path class="cls-1" d="M690.23,221.78l-2.07-1.2L671,250.3l-48.25-27.85v-57.6l-2.31-1.35h0l-47.56-27.46V80.34h40v-2.4H573.75l16.72-29-2.07-1.2L571.24,77.5l-38-22L532,57.62l38.44,22.21v56.22l-47.56,27.46h0l-2.32,1.35v57.59l-48.32,27.67L442.9,228.77l-1.41,1.94,28.4,20.64h0l.89.65-10.65,32.81,2.29.74,10.3-31.74h0l.46-1.47,48.59-27.82,1.12.65h0l48,27.73.73.43.74-.43,48-27.73h0l1.12-.65,48.67,28.1v35.43h2.4V253.14h40.08v-2.4h-39.2ZM523,167.54v-1.31l48.68-28.1,1.12.65h0l47.56,27.46v56.22l-47.56,27.46h0l-1.12.65-1.11-.65h0L523,222.45V167.54Z"/><rect class="cls-1" x="311.55" y="341.66" width="45.64" height="2.4"/><polygon class="cls-1" points="382.34 324.44 362.54 352.02 361.15 352.02 307.56 352.02 306.25 352.02 281.14 308.54 300.03 275.78 297.95 274.58 279.75 306.14 277.8 302.75 277.45 302.14 276.75 302.14 274.75 302.14 272.87 302.14 291.07 270.62 289 269.42 270.1 302.14 236.96 302.14 236.96 304.54 274.75 304.54 276.06 304.54 276.71 305.69 276.72 305.69 303.52 352.1 303.52 352.1 304.86 354.42 305.56 354.42 307.56 354.42 361.15 354.42 363.15 354.42 363.77 354.42 365.29 352.32 365.28 352.32 384.29 325.84 382.34 324.44"/><rect class="cls-1" x="414.59" y="305.14" width="22.04" height="2.4"/><rect class="cls-1" x="386.99" y="246.08" width="31.13" height="2.4" transform="translate(-68.49 283.52) rotate(-35.96)"/><rect class="cls-1" x="202.15" y="268.09" width="2.4" height="15.7" transform="translate(-110.62 138.41) rotate(-29.96)"/><rect class="cls-1" x="110.21" y="222.48" width="2.4" height="29.52" transform="translate(-103.71 87.52) rotate(-30.01)"/><rect class="cls-1" x="62.15" y="288.3" width="33.84" height="2.4"/><polygon class="cls-1" points="33.51 278.66 17.59 251.14 17.59 251.14 16.94 250.02 45.05 201.34 46.35 201.34 84.19 201.34 84.19 198.94 46.35 198.94 44.35 198.94 43.66 198.94 42.32 201.26 42.32 201.26 15.52 247.67 15.51 247.67 14.17 250.03 14.57 250.71 31.44 279.86 33.51 278.66"/><rect class="cls-1" x="16.14" y="229.06" width="45.63" height="2.4" transform="translate(-179.96 148.94) rotate(-60.02)"/><rect class="cls-1" x="441.29" y="266.82" width="29.36" height="2.4" transform="translate(60.07 618.75) rotate(-71.98)"/><polygon class="cls-1" points="694.2 202.62 708.27 202.62 708.27 199.18 694.2 199.18 694.2 190.46 710.2 190.46 710.2 186.98 690.32 186.98 690.32 215.66 694.2 215.66 694.2 202.62"/><polygon class="cls-1" points="661.51 323.14 665.39 323.14 665.39 310.1 679.48 310.1 679.48 306.66 665.39 306.66 665.39 297.98 681.39 297.98 681.39 294.46 661.51 294.46 661.51 323.14"/><polygon class="cls-1" points="739 240.34 739 236.86 719.12 236.86 719.12 265.54 723 265.54 723 252.5 737.08 252.5 737.08 249.06 723 249.06 723 240.34 739 240.34"/><polygon class="cls-1" points="404.51 314.5 390 291.26 385.44 291.26 385.44 319.94 389.12 319.94 389.12 296.74 403.83 319.94 408.19 319.94 408.19 291.26 404.51 291.26 404.51 314.5"/><polygon class="cls-1" points="377.85 251.91 377.85 251.91 388.77 285.55 391.06 284.81 380.76 253.09 380.77 253.08 380.42 252 381.33 251.36 381.31 251.34 409.74 230.71 408.33 228.77 378.3 250.56 377.57 251.07 377.85 251.91"/><polygon class="cls-1" points="462.12 314.5 447.6 291.26 443.04 291.26 443.04 319.94 446.71 319.94 446.71 296.74 461.44 319.94 465.8 319.94 465.8 291.26 462.12 291.26 462.12 314.5"/><polygon class="cls-1" points="226.88 311.5 212.35 288.26 207.79 288.26 207.79 316.94 211.47 316.94 211.47 293.74 226.19 316.94 230.56 316.94 230.56 288.26 226.88 288.26 226.88 311.5"/><polygon class="cls-1" points="226.63 332.82 211.72 332.82 211.72 320.94 207.79 320.94 207.79 349.66 211.72 349.66 211.72 336.22 226.63 336.22 226.63 349.66 230.56 349.66 230.56 320.94 226.63 320.94 226.63 332.82"/><path class="cls-1" d="M305.35,268.3a14.33,14.33,0,0,0,10.92-5c3.28-4.24,3.28-10.68,3.28-10.68a17.6,17.6,0,0,0-2.84-9.76C313,238,305.43,238,305.43,238a13.94,13.94,0,0,0-11,5.32c-2.88,4.16-2.88,10-2.88,10A18.47,18.47,0,0,0,295,263.94C298.75,268.3,305.35,268.3,305.35,268.3Zm-6.92-23.8c2.8-3,7.24-3,7.24-3a10.06,10.06,0,0,1,7.24,3.08c2.64,3.08,2.64,8.12,2.64,8.12a17.71,17.71,0,0,1-2.28,8.48c-2.28,3.68-7.44,3.68-7.44,3.68-5.4,0-7.8-3.28-7.8-3.28-2.44-3.24-2.44-8-2.44-8C295.59,247.54,298.43,244.5,298.43,244.5Z"/><polygon class="cls-1" points="433.31 225.86 418.8 202.62 414.24 202.62 414.24 231.3 417.95 231.3 417.95 208.1 432.63 231.3 437 231.3 437 202.62 433.31 202.62 433.31 225.86"/><polygon class="cls-1" points="199.75 234.9 196.07 234.9 196.07 258.14 181.56 234.9 177 234.9 177 263.62 180.68 263.62 180.68 240.38 195.4 263.62 199.75 263.62 199.75 234.9"/><polygon class="cls-1" points="180.91 217.5 195.84 217.5 195.84 230.9 199.75 230.9 199.75 202.22 195.84 202.22 195.84 214.1 180.91 214.1 180.91 202.22 177 202.22 177 230.9 180.91 230.9 180.91 217.5"/><polygon class="cls-1" points="130.8 247.67 130.79 247.67 114.08 218.66 112 219.86 129.37 250.02 128.72 251.14 128.72 251.14 101.92 297.55 101.91 297.55 101.26 298.7 99.95 298.7 62.16 298.7 62.16 301.1 99.95 301.1 101.95 301.1 102.65 301.1 103.01 300.48 131.45 251.22 170.59 251.22 170.59 248.82 131.45 248.82 130.8 247.67"/><polygon class="cls-1" points="94.28 190.5 109 213.74 113.36 213.74 113.36 185.02 109.67 185.02 109.67 208.26 95.16 185.02 90.59 185.02 90.59 213.74 94.28 213.74 94.28 190.5"/><polygon class="cls-1" points="52.08 308.06 37.55 284.78 32.99 284.78 32.99 313.5 36.67 313.5 36.67 290.26 51.4 313.5 55.76 313.5 55.76 284.78 52.08 284.78 52.08 308.06"/><polygon class="cls-1" points="515.72 50.9 529.84 50.9 529.84 47.46 515.72 47.46 515.72 38.78 531.75 38.78 531.75 35.26 511.83 35.26 511.83 63.94 515.72 63.94 515.72 50.9"/><polygon class="cls-1" points="623.24 79.7 637.32 79.7 637.32 76.26 623.24 76.26 623.24 67.58 639.24 67.58 639.24 64.06 619.32 64.06 619.32 92.74 623.24 92.74 623.24 79.7"/><polygon class="cls-1" points="594.43 29.82 608.51 29.82 608.51 26.38 594.43 26.38 594.43 17.66 610.43 17.66 610.43 14.18 590.51 14.18 590.51 42.86 594.43 42.86 594.43 29.82"/><path class="cls-2" d="M320,389.73a22.33,22.33,0,0,1-.45-4.51,22,22,0,0,1,1-6.76,35.81,35.81,0,0,1,3.45-7.29h-2a26.37,26.37,0,0,0-3.89,6.91,19.84,19.84,0,0,0,0,14.31,26,26,0,0,0,3.88,6.92h2a44.82,44.82,0,0,1-2.6-5.08A23.85,23.85,0,0,1,320,389.73Z"/><polygon class="cls-2" points="328.31 375.08 339.86 375.08 323.94 391.35 323.36 394.01 339.74 394.01 340.28 391.46 327.49 391.46 343.4 375.08 343.94 372.54 328.86 372.54 328.31 375.08"/><path class="cls-2" d="M350.6,378.08a26,26,0,0,0-3.88-6.91h-2a35.32,35.32,0,0,1,3.44,7.3,22.23,22.23,0,0,1,1,6.75,21.91,21.91,0,0,1-1.06,6.79,37.35,37.35,0,0,1-3.43,7.3h2a26.21,26.21,0,0,0,3.86-6.92,20.68,20.68,0,0,0,1.34-7.13A20.43,20.43,0,0,0,350.6,378.08Z"/></svg>