<?xml version="1.0" encoding="utf-8"?>
<!-- Generator: Adobe Illustrator 21.0.0, SVG Export Plug-In . SVG Version: 6.00 Build 0)  -->
<svg version="1.1" id="Слой_1" xmlns="http://www.w3.org/2000/svg" xmlns:xlink="http://www.w3.org/1999/xlink" x="0px" y="0px"
	 viewBox="0 0 915.4 407.2" style="enable-background:new 0 0 915.4 407.2;" xml:space="preserve">
<style type="text/css">
	.st0{fill:#7F7F7F;}
</style>
<g>
	<polygon points="606.5,137.4 607.7,135.4 568.1,112.6 566.9,114.6 	"/>
	<polygon points="566.9,203.8 568.1,205.9 607.7,183.1 606.5,181 	"/>
	<rect x="526.8" y="136.4" width="2.4" height="45.6"/>
	<rect x="381" y="201.8" transform="matrix(0.8663 -0.4995 0.4995 0.8663 -49.0077 222.8933)" width="21.8" height="2.4"/>
	<rect x="233.5" y="190.6" transform="matrix(0.4997 -0.8662 0.8662 0.4997 -67.4591 310.0197)" width="2.4" height="45.6"/>
	<rect x="174.2" y="224.8" width="2.4" height="45.6"/>
	<rect x="211.8" y="280.7" transform="matrix(0.8661 -0.4998 0.4998 0.8661 -109.4607 155.0157)" width="45.6" height="2.4"/>
	<polygon points="836.4,202 836.4,236.1 838.8,236.1 838.8,206.6 873,186.9 871.8,184.9 838.8,203.9 838.8,202 838.8,200 
		838.8,199.3 838.2,198.9 838.2,198.9 837.8,198.7 836.5,197.9 836.5,197.9 834.8,197 867.8,177.9 866.6,175.9 832.4,195.6 
		788.8,170.4 774.5,117.1 774.5,117.1 774.1,115.5 774,115.2 774,115.2 773.7,114.1 772.5,114.4 772.5,114.4 734,124.6 734.6,127 
		771.2,117.2 771.2,117.2 772,117 786.3,170.3 733.7,184.4 733.7,184.4 732.9,184.6 723.7,150.1 721.4,150.8 730.4,184.4 
		730.4,184.4 730.9,186.1 730.9,186.4 730.9,186.4 731.3,187.5 732.4,187.2 732.4,187.2 787.6,172.5 836.4,200.7 	"/>
	<polygon points="425.3,195.6 425.2,195.6 410.8,173.2 406.9,173.2 406.9,201.8 410.5,201.8 410.5,179.5 410.6,179.5 425,201.8 
		428.9,201.8 428.9,173.2 425.3,173.2 	"/>
	<path d="M371.6,205.6c-3.1-1.8-7-1.8-7-1.8c-3.9,0-7,1.8-7,1.8c-3.1,1.8-4.9,5.2-4.9,5.2c-1.8,3.4-1.8,7.8-1.8,7.8
		c0,4.4,1.8,7.7,1.8,7.7c1.8,3.4,4.9,5.2,4.9,5.2c3.1,1.8,7,1.8,7,1.8c3.9,0,7-1.8,7-1.8c3.1-1.8,4.9-5.2,4.9-5.2
		c1.8-3.4,1.8-7.8,1.8-7.8c0-4.5-1.8-7.8-1.8-7.8C374.7,207.4,371.6,205.6,371.6,205.6z M373.1,224.8c-1.2,2.6-3.4,4-3.4,4
		c-2.2,1.4-5.1,1.4-5.1,1.4c-2.8,0-5-1.4-5-1.4c-2.2-1.4-3.5-4-3.5-4c-1.2-2.6-1.2-6.1-1.2-6.1c0-3.6,1.2-6.2,1.2-6.2
		c1.2-2.6,3.4-4,3.4-4c2.2-1.4,5.1-1.4,5.1-1.4c2.9,0,5.1,1.4,5.1,1.4c2.2,1.4,3.4,4,3.4,4c1.2,2.6,1.2,6.2,1.2,6.2
		C374.3,222.2,373.1,224.8,373.1,224.8z"/>
	<path d="M317,190l-2.4-1.3l-0.7,0.4l-49.1,28.4l-49.1-28.3l-0.8-0.5l-0.7,0.4L165,217.4l-48.2-27.9l17-29.4l-2.1-1.2l-16.6,28.7
		l-21.4-37.2l-2.1,1.2l21.9,37.9l-35,20.2l1.2,2.1l35.5-20.5l48.7,28.1v56.2l-48.7,28.1l-49.3-28.5l0,0l-0.6-0.3l-0.6,0.3
		l-48.2,27.8l0,0l-2.3,1.3v0.7v2v53.6v2v0.7l2.3,1.3l0,0l48.2,27.8l0.6,0.3l0.6-0.3l0,0l48.2-27.8l0,0l2.3-1.3v-0.7v-2v-54.9
		l48.7-28.1l49.3,28.5l0,0l0.6,0.3l0.6-0.3l48.2-27.8l0,0l2.3-1.3v-0.7v-2v-54.9l47.6-27.5l0,0l1.1-0.6l31.4,18.1l1.2-2.1L317,190
		L317,190z M113.9,360.8v1.3l-47.6,27.5l0,0l-1.1,0.7l-1.1-0.7l0,0l-47.6-27.5v-1.3v-53.6v-1.3l47.6-27.5l0,0l1.1-0.7l1.1,0.7l0,0
		l47.6,27.5V360.8z M263.6,274.4v1.3L216,303.2l0,0l-1.1,0.7l-1.1-0.7l0,0l-47.6-27.5v-56.2l47.6-27.5l0,0l1.1-0.6l1.1,0.6l0,0
		l47.6,27.5V274.4z"/>
	<polygon points="60,219.7 72.9,219.7 72.9,216.3 60,216.3 60,207.4 74.3,207.4 74.3,204 56.2,204 56.2,232.6 60,232.6 	"/>
	<polygon points="138.7,141 151.5,141 151.5,137.6 138.7,137.6 138.7,128.7 153,128.7 153,125.3 134.9,125.3 134.9,154 138.7,154 	
		"/>
	<polygon points="81.1,141 93.9,141 93.9,137.6 81.1,137.6 81.1,128.7 95.4,128.7 95.4,125.3 77.3,125.3 77.3,154 81.1,154 	"/>
	<path d="M669.6,101.6l-1.7-0.9l-0.1-0.1l0,0l-0.6-0.3l-0.7,0.4L617.4,129l-48.7-28.1V46v-1.3l1.2-0.7l0,0L618,16.2l-1.2-2.1
		L566.9,43l0,0l-0.6,0.3V44v2v54.9l-47.6,27.5l0,0l-1.3,0.7l-0.4,0.3l0,0l-0.6,0.3v0.7v2v54.9l-43.5,25.1l-35.3-20.4l-1.2,2.1
		l34.1,19.7l-1.6,0.9l0,0l-2.3,1.3v0.7v2v1.9L432.4,201l-1.2,2.1l35.4,20.4v50.9h2.4v-55.6v-1.3l48.7-28.1l49.3,28.5l0,0l0.6,0.3
		l0.6-0.3l0,0l0.2-0.1l1.6-0.9l0,0l46.4-26.8l0,0l1.3-0.7l0.4-0.3l0,0l0.6-0.3V188v-2v-54.9l47.6-27.5l0,0l1.1-0.6l32.8,18.9
		l1.2-2.1L669.6,101.6L669.6,101.6z M616.2,186v1.3l-48.7,28.1l-1.1-0.7l0,0l-47.6-27.5v-54.9v-1.3l48.7-28.1l48.7,28.1V186z"/>
	<polygon points="728.2,144.2 728.2,115.6 724.6,115.6 724.6,138 724.5,138 710.1,115.6 706.2,115.6 706.2,144.2 709.8,144.2 
		709.8,121.9 709.9,121.9 724.3,144.2 	"/>
	<path d="M844.7,244.3c-3.1-1.8-7-1.8-7-1.8c-3.9,0-7,1.8-7,1.8c-3.1,1.8-4.9,5.2-4.9,5.2c-1.8,3.4-1.8,7.8-1.8,7.8
		c0,4.3,1.8,7.7,1.8,7.7c1.8,3.4,4.9,5.2,4.9,5.2c3.1,1.9,7,1.9,7,1.9c3.9,0,7-1.8,7-1.8c3.1-1.8,4.9-5.2,4.9-5.2
		c1.8-3.4,1.8-7.8,1.8-7.8c0-4.5-1.8-7.8-1.8-7.8C847.8,246.1,844.7,244.3,844.7,244.3z M846.1,263.5c-1.2,2.6-3.4,4-3.4,4
		c-2.2,1.4-5.1,1.4-5.1,1.4c-2.8,0-5-1.4-5-1.4c-2.2-1.4-3.5-3.9-3.5-3.9c-1.2-2.6-1.2-6.2-1.2-6.2c0-3.6,1.2-6.2,1.2-6.2
		c1.2-2.6,3.4-4,3.4-4c2.2-1.4,5.1-1.4,5.1-1.4c2.9,0,5.1,1.4,5.1,1.4c2.2,1.4,3.4,4,3.4,4c1.2,2.6,1.2,6.2,1.2,6.2
		C847.4,260.9,846.1,263.5,846.1,263.5z"/>
	<polygon points="873.2,254.8 859.1,254.8 859.1,243 855.3,243 855.3,271.6 859.1,271.6 859.1,258.2 873.2,258.2 873.2,271.6 
		877,271.6 877,243 873.2,243 	"/>
	<path d="M899.4,163.1c-1.8-3.4-4.9-5.2-4.9-5.2c-3.1-1.8-7-1.8-7-1.8c-3.9,0-7,1.8-7,1.8c-3.1,1.8-4.9,5.2-4.9,5.2
		c-1.8,3.4-1.8,7.8-1.8,7.8c0,4.4,1.8,7.7,1.8,7.7c1.8,3.4,4.9,5.2,4.9,5.2c3.1,1.9,7,1.9,7,1.9c3.9,0,7-1.8,7-1.8
		c3.1-1.8,4.9-5.2,4.9-5.2c1.8-3.4,1.8-7.8,1.8-7.8C901.2,166.4,899.4,163.1,899.4,163.1z M896,177.1c-1.2,2.6-3.4,4-3.4,4
		c-2.2,1.4-5.1,1.4-5.1,1.4c-2.8,0-5-1.4-5-1.4c-2.2-1.4-3.5-3.9-3.5-3.9c-1.2-2.6-1.2-6.2-1.2-6.2c0-3.6,1.2-6.2,1.2-6.2
		c1.2-2.6,3.4-4,3.4-4c2.2-1.4,5.1-1.4,5.1-1.4c2.9,0,5.1,1.4,5.1,1.4c2.2,1.4,3.4,4,3.4,4c1.2,2.6,1.2,6.2,1.2,6.2
		C897.3,174.5,896,177.1,896,177.1z"/>
</g>
<g>
	<path class="st0" d="M422.3,222.7h-2c-1.7,2.2-3,4.5-3.9,6.9s-1.3,4.8-1.3,7.2c0,2.3,0.4,4.7,1.3,7.1c0.9,2.4,2.2,4.7,3.9,6.9h2
		c-1.1-1.8-2-3.5-2.6-5.1s-1.1-3-1.4-4.5s-0.5-3-0.5-4.5c0-2.3,0.3-4.6,1-6.8C419.5,227.8,420.7,225.4,422.3,222.7z"/>
	<polygon class="st0" points="422.5,245.5 436.5,245.5 437,243 425.9,243 427.4,235.7 437.3,235.7 437.8,233.2 428,233.2 
		429.4,226.6 440,226.6 440.6,224.1 427.1,224.1 	"/>
	<path class="st0" d="M447.7,229.6c-0.9-2.4-2.2-4.7-3.9-6.9h-2c1.6,2.7,2.7,5.1,3.4,7.3c0.7,2.2,1.1,4.5,1.1,6.7
		c0,2.3-0.4,4.6-1.1,6.8c-0.7,2.2-1.9,4.6-3.4,7.3l2,0c1.7-2.2,3-4.5,3.9-6.9c0.9-2.4,1.3-4.8,1.3-7.1
		C449,234.4,448.6,232,447.7,229.6z"/>
</g>
</svg>
