<?xml version="1.0" encoding="utf-8"?>
<!-- Generator: Adobe Illustrator 19.2.1, SVG Export Plug-In . SVG Version: 6.00 Build 0)  -->
<svg version="1.1" id="Слой_1" xmlns="http://www.w3.org/2000/svg" xmlns:xlink="http://www.w3.org/1999/xlink" x="0px" y="0px"
	 viewBox="0 0 569.8 230.7" style="enable-background:new 0 0 569.8 230.7;" xml:space="preserve">
<g>
	<rect x="348.2" y="87.4" transform="matrix(0.4997 -0.8662 0.8662 0.4997 79.3453 357.7979)" width="2.4" height="45.6"/>
	<rect x="288.9" y="121.6" width="2.4" height="45.6"/>
	<path d="M380.7,116.5l36.9-12l-0.7-2.3l-37.2,12.1l-49.4-28.5l-0.6-0.4l-0.6,0.4l-49.3,28.4L248.2,96l-1.2,2.1l31.6,18.2v56.2
		L251,188.4l1.2,2.1l27.6-15.9L329,203l0.6,0.4l0.6-0.4l49.4-28.5l37.2,12.1l0.7-2.3l-36.9-12V116.5z M330.8,200l-1.1,0.6l-1.1-0.6
		l0,0L281,172.5v-56.2l47.6-27.5l0,0l1.1-0.6l1.1,0.6l0,0l47.6,27.5v56.2L330.8,200L330.8,200z"/>
	<path d="M211.6,96L180,114.2l-48.7-28.1V50.2h-2.4v35.9l-48.7,28.1L52.7,98.3l-1.2,2.1l27.6,15.9v54.9v2v0.7l2.3,1.3l0,0l46.4,26.8
		l0,0l1.7,1l0,0l0,0l0.6,0.3l0.6-0.3l0,0l49.9-28.8l0.6-0.3v-0.7v-2v-54.9l31.6-18.2L211.6,96z M178.8,172.5l-1.2,0.7l0,0L131.3,200
		l0,0l-1.1,0.7l-48.7-28.1v-1.3v-54.9l48.7-28.1l48.7,28.1v54.9V172.5z"/>
	<rect x="326.6" y="177.5" transform="matrix(0.8661 -0.4998 0.4998 0.8661 -42.5163 198.5599)" width="45.6" height="2.4"/>
	<polygon points="449.1,116.1 447.2,117.5 466.7,144.4 447.8,170.3 449.8,171.8 468.8,145.6 509.1,145.6 509.1,143.2 468.8,143.2 	
		"/>
	<rect x="148.7" y="87.4" transform="matrix(0.5001 -0.866 0.866 0.5001 -20.515 184.8824)" width="2.4" height="45.6"/>
	<rect x="434.9" y="152.9" transform="matrix(0.5876 -0.8092 0.8092 0.5876 60.2604 426.3306)" width="26.9" height="2.4"/>
	<rect x="127.1" y="177.5" transform="matrix(0.866 -0.5001 0.5001 0.866 -69.2566 98.9036)" width="45.6" height="2.4"/>
	<rect x="527.3" y="109.1" transform="matrix(0.5005 -0.8657 0.8657 0.5005 176.9937 527.3126)" width="36.4" height="2.4"/>
	<rect x="89.4" y="121.6" width="2.4" height="45.6"/>
	<path d="M241.8,78.8c-1.8-3.4-4.9-5.2-4.9-5.2c-3.1-1.8-7-1.8-7-1.8c-3.9,0-7,1.8-7,1.8c-3.1,1.8-4.9,5.2-4.9,5.2
		c-1.8,3.4-1.8,7.8-1.8,7.8c0,4.4,1.8,7.7,1.8,7.7c1.8,3.4,4.9,5.2,4.9,5.2c3.1,1.8,7,1.8,7,1.8c3.9,0,7-1.8,7-1.8
		c3.1-1.8,4.9-5.2,4.9-5.2c1.8-3.4,1.8-7.8,1.8-7.8C243.6,82.1,241.8,78.8,241.8,78.8z M238.4,92.8c-1.2,2.6-3.5,4-3.5,4
		c-2.2,1.4-5.1,1.4-5.1,1.4c-2.8,0-5-1.4-5-1.4c-2.2-1.4-3.4-4-3.4-4c-1.3-2.6-1.3-6.1-1.3-6.1c0-3.6,1.2-6.2,1.2-6.2
		c1.2-2.7,3.4-4,3.4-4c2.2-1.4,5.1-1.4,5.1-1.4c2.9,0,5.1,1.4,5.1,1.4c2.2,1.4,3.4,4,3.4,4c1.2,2.6,1.2,6.2,1.2,6.2
		C239.7,90.2,238.4,92.8,238.4,92.8z"/>
	<polygon points="426.9,89.3 427,89.3 441.4,111.7 445.3,111.7 445.3,83 441.7,83 441.7,105.4 441.6,105.4 427.3,83 423.3,83 
		423.3,111.7 426.9,111.7 	"/>
	<polygon points="427.3,65.5 441.3,65.5 441.3,79 445.1,79 445.1,50.4 441.3,50.4 441.3,62.1 427.3,62.1 427.3,50.4 423.5,50.4 
		423.5,79 427.3,79 	"/>
	<path d="M232.3,211.5c-2.2,1.8-5.5,1.8-5.5,1.8c-2.9,0-5-1.4-5-1.4c-2-1.4-3.1-4.1-3.1-4.1c-1.1-2.7-1.1-6.3-1.1-6.3
		c0-3.3,1.1-5.9,1.1-5.9c1.1-2.6,3.2-4,3.2-4c2.1-1.4,5.1-1.4,5.1-1.4c3,0,5,1.5,5,1.5c2,1.5,2.8,4.5,2.8,4.5l3.7-0.9
		c-1.1-4.1-4.1-6.2-4.1-6.2c-3-2.2-7.4-2.2-7.4-2.2c-3.9,0-6.9,1.8-6.9,1.8c-3,1.8-4.7,5.1-4.7,5.1c-1.7,3.3-1.7,7.8-1.7,7.8
		c0,4.7,1.6,8,1.6,8c1.6,3.4,4.6,5.2,4.6,5.2c3,1.8,7.1,1.8,7.1,1.8c3.1,0,5.6-1.1,5.6-1.1c2.5-1.2,4.2-3.3,4.2-3.3
		c1.7-2.2,2.3-5.1,2.3-5.1l-3.7-0.9C234.5,209.7,232.3,211.5,232.3,211.5z"/>
	<rect x="242.6" y="187.5" width="3.5" height="28.6"/>
	<polygon points="441.7,198.6 441.6,198.6 427.3,176.2 423.3,176.2 423.3,204.9 426.9,204.9 426.9,182.5 427,182.5 441.4,204.9 
		445.3,204.9 445.3,176.2 441.7,176.2 	"/>
	<path d="M532.6,143.7c-2.2-1.1-6.1-1.9-6.1-1.9c-2.8-0.6-4.3-1.2-4.3-1.2c-1.5-0.6-2.2-1.4-2.2-1.4c-0.7-0.8-0.7-2.2-0.7-2.2
		c0-1.3,0.8-2.3,0.8-2.3c0.8-1,2.2-1.6,2.2-1.6c1.4-0.6,3.3-0.6,3.3-0.6c2.8,0,4.5,1.4,4.5,1.4c1.6,1.3,2.3,4.5,2.3,4.5h0.1l3.6-0.8
		c-0.3-2.6-1.7-4.4-1.7-4.4c-1.4-1.8-3.6-2.8-3.6-2.8c-2.2-1-5.2-1-5.2-1c-2.8,0-5,1-5,1c-2.3,1-3.6,2.7-3.6,2.7
		c-1.3,1.7-1.3,3.9-1.3,3.9c0,2,0.7,3.4,0.7,3.4c0.6,1.4,2.3,2.6,2.3,2.6c1.6,1.2,4.6,2,4.6,2c0.7,0.2,2.3,0.6,2.3,0.6
		c2.8,0.6,4.2,1.2,4.2,1.2c1.7,0.6,2.6,1.6,2.6,1.6c0.9,1,0.9,2.8,0.9,2.8c0,1.4-0.9,2.4-0.9,2.4c-0.9,1.1-2.5,1.7-2.5,1.7
		c-1.6,0.6-3.4,0.6-3.4,0.6c-3.6,0-5.6-1.8-5.6-1.8c-2-1.8-2.4-5.3-2.4-5.3l-3.7,0.9c0.6,4.6,3.7,7,3.7,7c3.1,2.4,8.2,2.4,8.2,2.4
		c3,0,5.3-1.1,5.3-1.1c2.4-1.1,3.7-3.1,3.7-3.1c1.3-2,1.3-4.4,1.3-4.4c0-2.4-1-4-1-4C534.9,144.8,532.6,143.7,532.6,143.7z"/>
	<path d="M120.1,42c3,1.8,7.1,1.8,7.1,1.8c3,0,5.6-1.1,5.6-1.1c2.5-1.2,4.2-3.3,4.2-3.3c1.6-2.2,2.3-5.1,2.3-5.1l-3.7-0.9
		c-0.8,3.5-3,5.4-3,5.4c-2.2,1.8-5.5,1.8-5.5,1.8c-2.9,0-5-1.4-5-1.4c-2-1.4-3.1-4.1-3.1-4.1c-1.1-2.7-1.1-6.3-1.1-6.3
		c0-3.3,1.1-5.9,1.1-5.9c1.1-2.6,3.2-4,3.2-4c2.1-1.4,5.1-1.4,5.1-1.4c3,0,5,1.5,5,1.5c2,1.5,2.8,4.5,2.8,4.5l3.7-0.9
		c-1.2-4.1-4.1-6.2-4.1-6.2c-2.9-2.2-7.4-2.2-7.4-2.2c-3.9,0-6.9,1.8-6.9,1.8c-3,1.8-4.7,5.1-4.7,5.1c-1.7,3.3-1.7,7.8-1.7,7.8
		c0,4.7,1.6,8,1.6,8C117.1,40.2,120.1,42,120.1,42z"/>
	<rect x="142.8" y="14.7" width="3.5" height="28.6"/>
	<rect x="43" y="72.3" width="3.5" height="28.6"/>
	<path d="M32.8,96.3c-2.2,1.8-5.5,1.8-5.5,1.8c-2.9,0-5-1.4-5-1.4c-2.1-1.4-3.1-4.1-3.1-4.1c-1.1-2.7-1.1-6.3-1.1-6.3
		c0-3.3,1.1-5.9,1.1-5.9c1-2.6,3.2-4,3.2-4c2.1-1.4,5.1-1.4,5.1-1.4c3,0,5,1.5,5,1.5c1.9,1.5,2.8,4.5,2.8,4.5l3.7-0.9
		c-1.2-4.1-4.1-6.2-4.1-6.2c-3-2.2-7.4-2.2-7.4-2.2c-3.9,0-6.9,1.8-6.9,1.8c-3,1.8-4.7,5.1-4.7,5.1c-1.7,3.3-1.7,7.8-1.7,7.8
		c0,4.7,1.6,8,1.6,8c1.6,3.4,4.6,5.2,4.6,5.2c3,1.8,7.1,1.8,7.1,1.8c3,0,5.5-1.1,5.5-1.1c2.5-1.2,4.2-3.3,4.2-3.3
		c1.7-2.2,2.4-5.1,2.4-5.1l-3.7-0.9C34.9,94.5,32.8,96.3,32.8,96.3z"/>
</g>
</svg>
