<?xml version="1.0" encoding="utf-8"?>
<!-- Generator: Adobe Illustrator 21.0.0, SVG Export Plug-In . SVG Version: 6.00 Build 0)  -->
<svg version="1.1" id="Слой_1" xmlns="http://www.w3.org/2000/svg" xmlns:xlink="http://www.w3.org/1999/xlink" x="0px" y="0px"
	 viewBox="0 0 759.4 466.2" style="enable-background:new 0 0 759.4 466.2;" xml:space="preserve">
<g>
	<polygon points="595,193 561.6,173.7 560.4,175.8 592.1,194.1 592.1,194.1 593.2,194.7 593.2,196 593.2,249.6 593.2,250.9 
		592.1,251.6 592.1,251.6 544.5,279.1 543.4,278.4 543.4,278.4 497,251.6 497,251.6 495.8,250.9 495.8,249.6 495.8,196 495.8,194.7 
		497,194.1 497,194.1 528.6,175.8 527.4,173.7 499.8,189.7 465.7,170 464.5,172 497.4,191 494,193 494,193 493.4,193.3 493.4,194 
		493.4,196 493.4,198 460.5,178.9 459.3,181 493.4,200.7 493.4,249.6 493.4,251.6 493.4,252.3 494,252.7 494,252.7 543.9,281.5 
		543.9,281.5 544.5,281.8 545.1,281.5 545.1,281.5 545.3,281.4 546.8,280.5 546.8,280.5 595,252.7 595,252.7 595.6,252.3 
		595.6,251.6 595.6,249.6 595.6,196 595.6,194 595.6,193.3 595,193 	"/>
	<polygon points="604.5,185.1 607.2,189.8 609.4,188.8 606.5,183.7 	"/>
	<polygon points="644.8,173.3 637.6,160.8 635.6,162.2 642.6,174.2 	"/>
	<polygon points="596.7,190.8 598.3,193.6 600.5,192.6 598.7,189.4 	"/>
	<polygon points="620.1,173.7 624.9,182 627.1,181 622,172.2 	"/>
	<polygon points="612.3,179.4 616,185.9 618.2,184.9 614.2,178 	"/>
	<polygon points="627.9,168 633.7,178.1 635.9,177.2 629.8,166.5 	"/>
	<polygon points="596.7,254.8 598.7,256.2 600.5,253 598.3,252 	"/>
	<polygon points="612.3,266.3 614.2,267.7 618.2,260.8 616,259.8 	"/>
	<polygon points="633.7,267.6 627.9,277.7 629.8,279.2 635.9,268.5 	"/>
	<polygon points="620.1,272 622,273.4 627.1,264.6 624.9,263.7 	"/>
	<polygon points="604.5,260.6 606.5,262 609.4,256.9 607.2,255.9 	"/>
	<polygon points="642.6,271.4 635.6,283.4 637.6,284.9 644.8,272.4 	"/>
	<rect x="653.5" y="286.4" width="2.4" height="45.6"/>
	<rect x="691.1" y="342.3" transform="matrix(0.8654 -0.501 0.501 0.8654 -76.0135 403.9282)" width="45.6" height="2.4"/>
	<rect x="712.7" y="252.2" transform="matrix(0.5004 -0.8658 0.8658 0.5004 118.5743 755.5353)" width="2.4" height="45.6"/>
	<polygon points="545.7,109.6 545.7,108.3 546.8,107.7 546.8,107.7 594.4,80.2 629.1,100.2 630.3,98.2 596.1,78.4 613.1,48.9 
		611,47.7 594.4,76.4 572.9,39.3 570.9,40.5 592.8,78.4 543.9,106.6 543.9,106.6 543.3,106.9 543.3,107.6 543.3,109.6 543.3,144 
		545.7,144 	"/>
	<polygon points="470.1,259.6 475.5,269 477.3,267.4 472.3,258.8 	"/>
	<polygon points="460.9,263 467.9,275.1 469.8,273.6 463.2,262.2 	"/>
	<polygon points="479.2,256.2 483,262.8 484.9,261.2 481.5,255.3 	"/>
	<polygon points="488.3,252.8 490.5,256.6 492.4,255 490.5,251.9 	"/>
	<path d="M401.3,215h-2.4v37.6l-1.7-1l0,0l-1.6-0.9l-0.2-0.1l0,0l-0.6-0.3l-0.6,0.3l0,0l-3.4,1.9V215h-2.4v38.9L345,279.1
		l-49.3-28.5l0,0l-0.6-0.3l-0.6,0.3l0,0l-49.4,28.5l-52.4-17l0,0l-1.9-0.6l0,0l0,0l-0.8-0.3l-0.5,0.7l0,0L156.7,307l-26.5-46.6
		l9.9-30.4l-2.3-0.7l-9.9,30.4l-9.4,3.1l11.7-35.9l-2.3-0.7l-12.2,37.6l-31,10.1l0.7,2.3l30.3-9.8l39.9,43.8l0,0l33.8,46.6l0,0
		l0.5,0.7l1-0.3l54.2-17.6l32.9,19l1.2-2.1l-32.8-18.9v-56.2l47.6-27.5l0,0l1.1-0.7l1.1,0.7l0,0l47.6,27.5V336v1.3L311,356.3
		l1.2,2.1l31.6-18.3l0,0l2.3-1.3V338v-2v-54.9l47.6-27.5l0,0l1.1-0.7l32.8,18.9l1.2-2.1L401.3,254V215z M192,354.1l-1.1,0.4
		l-0.6-0.9l0,0l-32.2-44.3l32.2-44.3l0,0l0.4-0.6l0.2-0.3l53.1,17.3v55.9L192,354.1L192,354.1z M156.6,309.2L156.6,309.2
		L156.6,309.2L156.6,309.2z"/>
	<rect x="304.2" y="339" transform="matrix(0.8661 -0.4999 0.4999 0.8661 -127.1403 205.7925)" width="32.6" height="2.4"/>
	<rect x="254.4" y="286.4" width="2.4" height="45.6"/>
	<rect x="313.7" y="252.2" transform="matrix(0.5004 -0.8658 0.8658 0.5004 -80.8124 410.0115)" width="2.4" height="45.6"/>
	<polygon points="125.5,341.5 135.5,348.8 136.7,346.6 127.2,339.8 	"/>
	<polygon points="131.9,355 120.7,346.9 119,348.7 130.7,357.1 	"/>
	<polygon points="132.1,334.4 140.2,340.4 141.4,338.3 133.7,332.6 	"/>
	<polygon points="138.5,327.3 145,332 146.2,329.9 140.2,325.5 	"/>
	<polygon points="151.5,313 154.6,315.2 155.8,313.1 153.2,311.2 	"/>
	<polygon points="145.1,320.1 149.8,323.6 151,321.5 146.7,318.4 	"/>
	<rect x="90.9" y="334" transform="matrix(0.3086 -0.9512 0.9512 0.3086 -275.704 334.3289)" width="2.4" height="45.6"/>
	<rect x="83.6" y="422.5" transform="matrix(0.743 -0.6693 0.6693 0.743 -256.2823 180.0943)" width="45.6" height="2.4"/>
	<rect x="41.6" y="394.2" transform="matrix(0.978 -0.2085 0.2085 0.978 -84.4772 17.9199)" width="2.4" height="31.1"/>
	<polygon points="537.1,156.7 537.2,156.7 551.6,179.1 555.5,179.1 555.5,150.4 551.9,150.4 551.9,172.8 551.8,172.8 537.5,150.4 
		533.5,150.4 533.5,179.1 537.1,179.1 	"/>
	<path d="M744.7,279.4L744.7,279.4l-49.9-28.8l0,0l-0.6-0.3l-0.6,0.3l0,0l-0.2,0.1l-1.5,0.9l0,0l-46.4,26.8l0,0l-2.3,1.3v0.7v2V336
		v2v0.7l2.3,1.3l0,0l46.4,26.8l0,0l1.5,0.9l0.2,0.1l0,0l0.6,0.3l0.6-0.3l0,0l49.9-28.8l0,0l0.6-0.3V338v-2v-53.6v-2v-0.7
		L744.7,279.4z M742.9,336v1.3l-1.2,0.7l0,0l-46.4,26.8l0,0l-1.1,0.7l-48.7-28.1V336v-53.6v-1.3l48.7-28.1l1.1,0.7l0,0l46.4,26.8
		l0,0l1.2,0.7v1.3V336z"/>
	<polygon points="617.9,29.8 630.8,29.8 630.8,26.4 617.9,26.4 617.9,17.6 632.3,17.6 632.3,14.2 614.1,14.2 614.1,42.8 617.9,42.8 
			"/>
	<polygon points="560.3,29.8 573.2,29.8 573.2,26.4 560.3,26.4 560.3,17.6 574.7,17.6 574.7,14.2 556.5,14.2 556.5,42.8 560.3,42.8 
			"/>
	<polygon points="639,108.5 651.9,108.5 651.9,105.1 639,105.1 639,96.2 653.3,96.2 653.3,92.8 635.2,92.8 635.2,121.5 639,121.5 	
		"/>
	<path d="M451.8,152c-3.1-1.8-7-1.8-7-1.8c-3.9,0-7,1.8-7,1.8c-3.1,1.8-4.9,5.2-4.9,5.2c-1.8,3.4-1.8,7.8-1.8,7.8
		c0,4.3,1.8,7.7,1.8,7.7c1.8,3.4,4.9,5.2,4.9,5.2c3.1,1.8,7,1.8,7,1.8c3.9,0,7-1.8,7-1.8c3.1-1.8,4.9-5.2,4.9-5.2
		c1.8-3.4,1.8-7.8,1.8-7.8c0-4.5-1.8-7.8-1.8-7.8C454.9,153.8,451.8,152,451.8,152z M453.3,171.2c-1.2,2.6-3.4,4-3.4,4
		c-2.2,1.4-5.1,1.4-5.1,1.4c-2.8,0-5-1.4-5-1.4c-2.2-1.4-3.5-4-3.5-4c-1.2-2.6-1.2-6.1-1.2-6.1c0-3.6,1.2-6.3,1.2-6.3
		c1.2-2.6,3.4-4,3.4-4c2.2-1.4,5.1-1.4,5.1-1.4c2.9,0,5.1,1.4,5.1,1.4c2.2,1.4,3.4,4,3.4,4c1.2,2.6,1.2,6.2,1.2,6.2
		C454.5,168.6,453.3,171.2,453.3,171.2z"/>
	<polygon points="452.1,288 452.1,288 437.7,265.6 433.8,265.6 433.8,294.3 437.4,294.3 437.4,271.9 437.5,271.9 451.9,294.3 
		455.7,294.3 455.7,265.6 452.1,265.6 	"/>
	<polygon points="451.8,310 437.7,310 437.7,298.3 433.9,298.3 433.9,326.9 437.7,326.9 437.7,313.4 451.8,313.4 451.8,326.9 
		455.6,326.9 455.6,298.3 451.8,298.3 	"/>
	<path d="M387.9,206.8c3.1,1.8,7,1.8,7,1.8c3.9,0,7-1.8,7-1.8c3.1-1.8,4.9-5.2,4.9-5.2c1.8-3.4,1.8-7.8,1.8-7.8
		c0-4.5-1.8-7.8-1.8-7.8c-1.8-3.3-4.9-5.2-4.9-5.2c-3.1-1.8-7-1.8-7-1.8c-3.9,0-7,1.8-7,1.8c-3.1,1.8-4.9,5.2-4.9,5.2
		c-1.8,3.4-1.8,7.8-1.8,7.8c0,4.3,1.8,7.7,1.8,7.7C384.7,204.9,387.9,206.8,387.9,206.8z M386.3,187.6c1.2-2.6,3.4-4,3.4-4
		c2.2-1.4,5.1-1.4,5.1-1.4c2.9,0,5.1,1.4,5.1,1.4c2.2,1.4,3.4,4,3.4,4c1.2,2.6,1.2,6.2,1.2,6.2c0,3.6-1.3,6.2-1.3,6.2
		c-1.2,2.6-3.4,4-3.4,4c-2.2,1.4-5.1,1.4-5.1,1.4c-2.8,0-5-1.4-5-1.4c-2.2-1.4-3.5-4-3.5-4c-1.2-2.6-1.2-6.1-1.2-6.1
		C385.1,190.3,386.3,187.6,386.3,187.6z"/>
	<polygon points="302.5,374.4 302.4,374.4 288,352 284.1,352 284.1,380.7 287.7,380.7 287.7,358.3 287.8,358.3 302.2,380.7 
		306.1,380.7 306.1,352 302.5,352 	"/>
	<polygon points="60.6,271.9 60.7,271.9 75,294.3 78.9,294.3 78.9,265.6 75.3,265.6 75.3,288 75.3,288 60.9,265.6 57,265.6 
		57,294.3 60.6,294.3 	"/>
	<polygon points="35.1,280.8 49.2,280.8 49.2,294.3 53,294.3 53,265.6 49.2,265.6 49.2,277.4 35.1,277.4 35.1,265.6 31.3,265.6 
		31.3,294.3 35.1,294.3 	"/>
	<path d="M133.5,220.6c3.1,1.8,7,1.8,7,1.8c3.9,0,7-1.8,7-1.8c3.1-1.8,4.9-5.2,4.9-5.2c1.8-3.4,1.8-7.8,1.8-7.8
		c0-4.4-1.8-7.8-1.8-7.8c-1.8-3.4-4.9-5.2-4.9-5.2c-3.1-1.8-7-1.8-7-1.8c-3.9,0-7,1.8-7,1.8c-3.1,1.8-4.9,5.2-4.9,5.2
		c-1.8,3.4-1.8,7.8-1.8,7.8c0,4.4,1.8,7.7,1.8,7.7C130.4,218.7,133.5,220.6,133.5,220.6z M132,201.5c1.2-2.6,3.4-4,3.4-4
		c2.2-1.4,5.1-1.4,5.1-1.4c2.9,0,5.1,1.4,5.1,1.4c2.2,1.4,3.4,4,3.4,4c1.2,2.6,1.2,6.2,1.2,6.2c0,3.6-1.2,6.2-1.2,6.2
		c-1.2,2.6-3.5,4-3.5,4c-2.2,1.4-5.1,1.4-5.1,1.4c-2.8,0-5-1.4-5-1.4c-2.2-1.4-3.4-4-3.4-4c-1.3-2.6-1.3-6.1-1.3-6.1
		C130.7,204.1,132,201.5,132,201.5z"/>
	<polygon points="135.5,410 123.9,355.6 123.9,355.6 123.8,354.9 123.1,354.7 123.1,354.7 123,354.7 121.2,354.1 121.2,354.1 
		69.1,337.2 69.1,300.7 66.7,300.7 66.7,337.5 40.1,361.5 41.7,363.3 68.2,339.4 121.7,356.8 122,358 122,358 133.4,411.7 
		91.6,449.4 39.4,432.4 39.4,432.4 38.1,432 37.9,430.7 37.9,430.7 30.6,396.4 28.2,396.9 35.9,433.2 35.9,433.2 36.1,433.9 
		36.7,434.1 36.7,434.1 89.6,451.3 89.6,451.3 91.5,451.9 91.5,451.9 91.5,451.9 92.2,452.1 94.2,450.3 94.2,450.3 134,414.4 
		134,414.4 136,412.6 135.5,410 	"/>
	<polygon points="36.1,390.4 36.1,361.8 32.5,361.8 32.5,384.1 32.5,384.1 18.1,361.8 14.2,361.8 14.2,390.4 17.7,390.4 17.7,368 
		17.8,368 32.2,390.4 	"/>
</g>
</svg>
